<svg width="849" height="516" viewBox="0 0 849 516" fill="none" xmlns="http://www.w3.org/2000/svg">
<path d="M201.747 426.294C200.508 427.979 199.255 430.258 199.823 432.49C200.186 433.914 201.2 434.846 202.186 435.587C207.143 439.314 212.86 440.786 218.482 442.003C277.367 454.785 337.547 446.258 397.202 447.907C431.68 448.857 466.131 453.219 500.596 451.634C505.419 451.415 511.312 450.073 512.898 444.026C514.339 438.525 511.088 432.84 507.592 429.326C498.049 419.742 485.638 417.072 473.738 415.398C452.575 412.413 431.276 411.612 410.002 410.817C377.526 409.594 345.048 408.378 312.572 407.155C292.534 406.401 272.472 405.642 252.433 406.74C233.632 407.76 215.687 407.315 201.747 426.294Z" fill="#E8E8E8"/>
<path d="M224.65 111.86C229.987 105.961 236.956 103.457 243.738 101.463C297.208 85.7603 352.93 92.0628 407.247 82.7812C421.569 80.3303 436.534 76.8823 450.121 83.3747C454.53 85.4814 459.266 89.9679 458.933 96.1754C458.652 101.404 454.907 104.935 451.474 107.528C409.609 139.129 359.543 145.479 311.412 143.177C293.868 142.334 276.323 140.435 259.044 136.31C251.062 134.4 243.024 131.96 235.903 126.809C234.011 125.438 221.473 115.374 224.65 111.86Z" fill="#8E856E"/>
<path d="M257.22 86.0452C264.81 88.057 272.278 82.6091 278.978 77.3571C281.171 75.6361 283.365 73.9151 285.559 72.1941C290.911 67.9984 297.347 63.6958 302.976 67.1616C303.91 65.6008 304.844 64.0401 305.778 62.4793C312.421 61.8503 319.064 61.2212 325.707 60.598C327.135 60.4615 328.585 60.3192 329.925 59.6367C330.836 59.1738 331.672 58.4735 332.564 57.9454C336.542 55.5894 341.19 56.889 345.188 59.1857C349.185 61.4764 352.9 64.7225 357.062 66.3842C361.005 67.9628 365.177 68.0578 369.288 68.034C370.264 68.0221 371.308 68.0399 372.116 68.7817C372.924 69.5295 373.282 71.298 372.553 72.1823C379.797 74.1228 387.04 76.0634 394.283 78.004C399.562 79.4164 404.84 80.8288 410.118 82.2412C414.984 83.5468 419.849 84.8464 424.714 86.152C430.257 87.6356 435.799 89.1192 441.342 90.6029C447.23 92.1814 454.208 95.0775 455.726 102.97C456.578 107.403 455.251 112.24 452.952 115.593C450.653 118.946 447.507 120.999 444.306 122.436C435.456 126.406 425.933 126.121 416.656 127.326C389.769 130.821 364.664 146.945 338.163 154.043C316.156 159.942 293.242 159.497 271.367 152.755C262.304 149.96 253.44 146.108 244.589 142.263C236.236 138.631 221.382 126.044 230.949 112.525C237.925 102.662 254.815 100.959 257.22 86.0452Z" fill="#EFE9DB"/>
<path d="M225.475 232.615C225.995 249.6 227.777 266.472 228.631 283.433C230.972 329.941 206.873 413.463 214.775 421.125C217.157 423.433 246.77 428.751 263.14 427.392C305.763 423.855 348.437 426.644 391.131 429.433C420.296 431.338 449.471 433.249 478.644 433.136C479.562 433.13 480.53 433.113 481.32 432.489C483.539 430.745 482.679 426.252 481.443 423.249C476.869 412.134 470.718 401.642 469.304 389.12C468.349 380.658 469.67 372.082 470.618 363.625C479.489 284.536 455.911 205.981 449.844 126.429C449.26 118.768 342.405 131.052 332.341 132.115C312.773 134.18 293.191 136.156 273.566 136.957C270.441 137.088 266.831 136.726 263.069 136.37C251.489 135.266 238.464 134.162 233.696 147.236C224.968 171.17 224.681 206.646 225.475 232.615Z" fill="#B8AD8A"/>
<path d="M481.279 432.49C483.498 430.745 482.638 426.252 481.402 423.25C476.829 412.134 470.677 401.636 469.263 389.114C468.308 380.658 469.629 372.082 470.578 363.62C477.831 298.951 463.389 234.639 454.566 169.84C447.366 169.134 440.043 169.401 432.858 169.995C402.95 172.463 373.422 179.905 343.784 185.769C309.063 192.635 273.898 195.05 239.216 201.78C233.187 202.949 228.623 204.628 225.191 208.51C225.069 216.996 225.207 225.191 225.434 232.616C225.622 238.764 225.977 244.894 226.392 251.024C228.856 252.324 231.84 253.048 235.355 253.101C283.274 253.849 331.149 259.469 378.422 269.896C392.488 273 406.992 276.792 418.636 287.717C431.491 299.776 439.597 320.298 439.761 341.193C439.9 358.789 435.041 378.023 442.004 393.001C444.77 398.954 449.104 407.072 445.069 411.57C443.919 412.846 442.37 413.262 440.888 413.57C427.17 416.449 413.177 414.401 399.336 412.882C372.195 409.909 344.917 408.995 317.711 410.603C302.731 411.487 287.785 413.137 272.843 414.781C253.501 416.911 234.158 419.042 214.816 421.172C229.485 430.804 246.76 428.745 263.099 427.392C334.839 421.434 406.724 433.409 478.603 433.136C479.522 433.13 480.489 433.107 481.279 432.49Z" fill="#A3997C"/>
<path d="M277.047 239.85C308.057 238.906 338.709 247.606 369.516 252.413C400.322 257.22 432.605 257.879 461.153 241.778C462.497 241.025 463.863 240.188 465.108 239.155C463.9 230.817 462.624 222.479 461.337 214.135C455.964 211.501 449.91 212.545 444.182 213.578C417.282 218.438 390.227 221.761 363.121 223.779C350.212 224.746 337.187 225.405 324.417 222.711C315.641 220.859 307.068 217.441 298.239 216.1C289.962 214.848 281.595 215.447 273.28 216.141C259.053 217.328 243.96 217.263 229.938 220.752C228.263 221.168 226.712 221.672 225.382 222.497C225.433 225.987 225.513 229.375 225.611 232.616C225.704 235.636 225.838 238.657 225.998 241.672C226.917 242.093 227.936 242.342 229.036 242.413C245.043 243.398 261.027 240.336 277.047 239.85Z" fill="#8E856E"/>
<path d="M213.329 154.636C211.069 170.701 211.542 187.199 212.075 203.53C212.226 208.171 212.421 213.008 214.129 217.067C218.383 227.185 229.055 227.381 237.772 226.841C275.105 224.539 312.283 232.817 349.524 236.983C386.765 241.149 425.361 240.948 460.093 222.634C463.794 220.681 467.67 218.26 469.689 213.708C474.207 203.525 466.922 191.667 464.301 180.374C461.253 167.241 464.81 153.242 466.031 139.598C467.144 127.171 466.269 114.436 463.482 102.484C462.538 98.4305 461.146 94.1161 458.288 92.223C455.118 90.1222 451.335 91.7304 447.993 93.2912C434.047 99.8014 419.752 105.077 405.183 108.395C367.804 116.922 331.022 115.83 293.352 114.928C274.67 114.483 238.628 115.783 226.879 111.931C218.19 109.077 215.959 135.936 213.329 154.636Z" fill="#B8AD8A"/>
<path d="M465.839 139.598C466.952 127.171 466.077 114.436 463.29 102.484C462.346 98.4305 460.954 94.1161 458.096 92.223C454.926 90.1222 451.143 91.7304 447.801 93.2912C445.999 94.1339 444.192 94.9529 442.38 95.7481C442.937 96.4425 443.451 97.1605 443.805 97.926C445.327 101.202 443.516 105.493 441.273 107.938C439.031 110.377 436.218 112.187 434.861 115.593C433.044 120.145 434.508 125.67 434.561 130.821C434.645 138.993 430.959 146.619 426.106 151.651C421.254 156.684 415.332 159.508 409.45 161.93C397.031 167.039 384.272 170.695 371.371 172.843C364.722 173.947 357.603 174.879 352.413 180.505C358.715 186.76 367.297 186.587 375.141 185.763C397.624 183.389 419.917 177.822 441.514 169.188C444.41 168.03 448.084 167.099 450.008 170.196C450.769 171.419 451.053 173.033 451.314 174.582C451.91 178.107 452.505 181.632 453.101 185.163C453.462 187.3 453.822 189.537 453.39 191.65C452.783 194.617 450.756 196.664 448.74 198.189C441.763 203.453 433.604 205.139 425.62 206.219C411.395 208.142 397.078 208.444 382.781 208.747C337.094 209.708 291.406 210.664 245.719 211.625C233.971 211.874 220.532 211.008 211.824 201.726C211.844 202.326 211.863 202.925 211.883 203.53C212.034 208.171 212.23 213.008 213.937 217.067C218.191 227.185 228.863 227.381 237.58 226.841C274.913 224.539 312.091 232.817 349.332 236.983C386.573 241.149 425.169 240.948 459.901 222.634C463.602 220.681 467.478 218.26 469.498 213.708C474.015 203.525 466.73 191.667 464.109 180.374C461.061 167.241 464.618 153.242 465.839 139.598Z" fill="#A3997C"/>
<path d="M261.291 271.065C258.961 271.51 256.525 272.199 254.77 274.282C253.329 275.991 252.525 278.436 251.848 280.839C249.034 290.821 247.672 301.521 247.859 312.179C248.049 322.998 249.813 333.668 250.273 344.469C250.734 355.276 249.732 366.712 245.008 375.536C242.17 380.83 237.843 386.099 238.751 392.485C239.603 398.473 244.721 401.547 249.281 402.253C254.788 403.108 260.346 401.98 265.837 400.96C285.926 397.239 306.173 395.025 326.449 394.337C338.361 393.933 351.611 393.363 360.072 382.224C363.712 377.435 366.022 371.145 367.783 364.753C371.017 353.021 372.59 339.941 369.711 328.042C367.218 317.74 361.631 309.266 355.53 302.091C329.171 271.101 294.976 264.65 261.291 271.065Z" fill="#C6BA97"/>
<path d="M225.414 136.803C225.898 145.711 233.449 150.476 239.979 151.515C247.183 152.654 254.463 151.586 261.687 150.708C294.165 146.761 326.899 146.702 359.384 150.53C374.097 152.262 389.391 154.702 403.257 147.794C416.815 141.04 427.351 126.002 435.065 109.421C425.421 106.988 415.659 111.463 406.249 115.225C383.127 124.459 358.959 129.67 334.898 127.777C318.58 126.489 302.503 121.973 286.284 119.225C275.728 117.439 223.914 109.273 225.414 136.803Z" fill="#C6BA97"/>
<path d="M224.27 195.952C228.648 197.554 233.27 197.335 237.809 197.151C274.911 195.667 312.089 197.531 349.001 202.729C356.344 203.762 363.847 204.919 371.041 202.712C371.539 202.557 372.064 202.367 372.41 201.869C373.687 200.029 371.295 197.679 369.446 197.198C339.018 189.252 308.283 181.276 277.283 182.445C269.629 182.736 261.806 183.626 254.24 181.585C246.993 179.626 240.866 173.84 233.774 171.36C222.372 167.383 210.228 190.807 224.27 195.952Z" fill="#C6BA97"/>
<path d="M309.478 140.542C302.982 140.542 296.485 139.913 289.993 139.289C283.501 138.66 277.014 138.031 270.534 138.031C267.391 138.031 264.249 138.18 261.111 138.548C256.743 139.058 252.277 139.978 247.909 139.978C244.826 139.978 241.792 139.515 238.878 138.138C237.627 137.545 236.304 136.625 235.861 134.963C235.42 133.302 236.022 131.462 236.831 130.061C239.766 124.999 244.739 123.765 249.745 123.765C251.438 123.765 253.136 123.907 254.759 124.091C273.591 126.198 292.096 129.794 310.838 133.118C312.203 133.355 313.649 133.646 314.7 134.827C315.751 136.008 316.14 138.411 315.116 139.634C314.491 140.376 313.577 140.459 312.737 140.488C311.651 140.524 310.565 140.542 309.478 140.542Z" fill="#D6CDB4"/>
<path d="M406.401 252.561C410.318 253.612 414.236 254.662 418.154 255.713C422.86 256.977 427.593 258.247 432.065 260.561C439.586 264.46 446.123 271.196 451.678 278.976C457.232 286.75 461.877 295.575 466.444 304.411C468.894 309.147 471.374 314.043 472.389 319.627C473.413 306.464 472.441 293.177 471.247 280.038C469.642 262.371 467.636 244.769 465.233 227.268C465.041 225.868 464.802 220.752 463.783 220.325L460.914 222.088C461.223 224.61 438.594 241.654 425.807 245.44C420.646 246.971 415.339 247.392 410.061 247.802C409.58 247.843 409.1 247.879 408.62 247.915L406.401 252.561Z" fill="#8E856E"/>
<path d="M478.08 433.136C478.998 433.13 479.965 433.107 480.755 432.49C482.289 431.285 482.352 428.763 481.836 426.33C481.571 426.555 481.354 426.899 481.134 427.208C478.706 430.608 474.638 430.335 471.128 429.825C451.215 426.947 431.252 424.68 411.26 423.024C375.646 420.075 339.939 419.078 304.262 420.027C286.491 420.502 268.726 421.457 250.983 422.899C242.245 423.612 233.509 424.413 224.785 425.386C224.285 425.439 223.702 425.481 223.081 425.534C235.617 430.027 249.4 428.484 262.576 427.392C334.316 421.434 406.201 433.409 478.08 433.136Z" fill="#8E856E"/>
<path d="M374.67 101.837C377.249 101.516 379.828 101.19 382.407 100.864C382.819 100.816 383.174 100.436 383.174 99.8488C383.174 99.3384 382.822 98.7747 382.407 98.8281C379.828 99.1545 377.249 99.4749 374.67 99.8013C374.258 99.8547 373.903 100.229 373.903 100.816C373.903 101.327 374.255 101.89 374.67 101.837Z" fill="#C6C1B6"/>
<path d="M380.597 94.4898C382.127 95.0833 383.723 95.3919 385.317 95.4038C385.719 95.4097 386.103 94.935 386.085 94.389C386.066 93.8311 385.747 93.3742 385.317 93.3683C383.802 93.3564 382.475 93.0952 381.005 92.5255C380.62 92.3772 380.152 92.7036 380.061 93.2377C379.967 93.7836 380.185 94.3296 380.597 94.4898Z" fill="#C6C1B6"/>
<path d="M390.805 91.0479C391.12 91.0775 391.434 91.1192 391.747 91.1726C391.583 91.1429 391.876 91.1963 391.904 91.2022C391.975 91.2141 392.048 91.2319 392.119 91.2497C392.275 91.2793 392.43 91.3209 392.585 91.3624C393.216 91.5286 393.838 91.7482 394.448 92.0152C394.829 92.1814 395.303 91.8194 395.392 91.3031C395.489 90.7452 395.264 90.229 394.856 90.0509C393.546 89.4753 392.182 89.137 390.805 89.0124C390.404 88.9768 390.02 89.5049 390.038 90.0331C390.058 90.6147 390.375 91.0123 390.805 91.0479Z" fill="#C6C1B6"/>
<path d="M392.285 100.846C393.792 100.419 395.299 99.9971 396.806 99.5758C397.199 99.463 397.464 98.8221 397.342 98.3236C397.208 97.7717 396.819 97.4928 396.398 97.6115C394.891 98.0328 393.384 98.4541 391.878 98.8755C391.484 98.9882 391.219 99.6292 391.342 100.134C391.476 100.686 391.864 100.959 392.285 100.846Z" fill="#C6C1B6"/>
<path d="M408.426 99.5758C409.933 99.3028 411.441 99.0357 412.948 98.7627C413.347 98.6915 413.6 97.9853 413.484 97.5106C413.342 96.9231 412.968 96.7213 412.54 96.7984C411.032 97.0655 409.525 97.3385 408.018 97.6115C407.619 97.6827 407.366 98.3889 407.482 98.8637C407.624 99.4453 407.998 99.653 408.426 99.5758Z" fill="#C6C1B6"/>
<path d="M407.067 92.7037C408.725 93.131 410.412 93.3268 412.1 93.2616C412.501 93.2438 412.887 92.8047 412.868 92.2409C412.85 91.7008 412.53 91.2023 412.1 91.2201C410.523 91.2854 408.983 91.1251 407.475 90.7394C407.082 90.6385 406.628 90.8878 406.531 91.4515C406.445 91.956 406.646 92.5969 407.067 92.7037Z" fill="#C6C1B6"/>
<path d="M399.957 84.6447C400.817 85.072 401.678 85.4993 402.538 85.9266C402.715 86.0156 402.973 85.9502 403.13 85.8256C403.289 85.701 403.441 85.4577 403.483 85.2144C403.582 84.6388 403.35 84.164 402.947 83.9623C402.086 83.535 401.225 83.1076 400.365 82.6803C400.188 82.5913 399.93 82.6567 399.773 82.7813C399.614 82.9059 399.463 83.1491 399.421 83.3925C399.321 83.9681 399.553 84.443 399.957 84.6447Z" fill="#C6C1B6"/>
<path d="M417.052 92.8343C418.341 93.1311 419.63 93.4337 420.919 93.7304C421.314 93.8195 421.765 93.588 421.864 93.0183C421.949 92.5257 421.751 91.8611 421.328 91.7661C420.039 91.4694 418.749 91.1667 417.46 90.8699C417.066 90.7809 416.614 91.0124 416.516 91.5821C416.431 92.0806 416.629 92.7394 417.052 92.8343Z" fill="#C6C1B6"/>
<path d="M421.367 98.935C423.3 98.3475 425.233 97.76 427.166 97.1666C427.57 97.0479 427.808 96.4306 427.702 95.9143C427.588 95.3683 427.163 95.0835 426.758 95.2022C424.825 95.7956 422.892 96.3832 420.959 96.9707C420.555 97.0953 420.316 97.7125 420.423 98.2228C420.537 98.7748 420.961 99.0596 421.367 98.935Z" fill="#C6C1B6"/>
<path d="M431.461 95.398C432.396 95.4573 433.351 95.2852 434.239 94.8935C434.62 94.7274 434.907 94.1814 434.775 93.6414C434.653 93.1369 434.24 92.7512 433.832 92.9292C433.417 93.1132 432.993 93.2437 432.561 93.3209C432.629 93.309 432.696 93.2972 432.764 93.2853C432.332 93.3624 431.897 93.3861 431.461 93.3624C431.059 93.3327 430.676 93.8432 430.693 94.3773C430.713 94.9529 431.031 95.3683 431.461 95.398Z" fill="#C6C1B6"/>
<path d="M383.825 79.0543C385.328 79.3629 386.831 79.6715 388.334 79.9801C388.73 80.0632 389.179 79.8495 389.279 79.2679C389.362 78.7813 389.167 78.1048 388.743 78.0158C387.239 77.7072 385.736 77.3986 384.233 77.09C383.838 77.0069 383.388 77.2206 383.289 77.8022C383.205 78.2888 383.401 78.9653 383.825 79.0543Z" fill="#C6C1B6"/>
<path d="M389.364 86.609C389.519 86.5616 389.674 86.52 389.83 86.4844C389.897 86.4726 389.964 86.4547 390.031 86.4428C390.051 86.4369 390.275 86.4013 390.095 86.4251C390.388 86.3835 390.68 86.3419 390.975 86.33C391.563 86.2944 392.152 86.3301 392.736 86.4251C393.136 86.4904 393.52 85.9087 393.503 85.4102C393.483 84.7989 393.164 84.4607 392.736 84.3895C391.475 84.1818 390.197 84.2827 388.956 84.6447C388.563 84.7575 388.297 85.3925 388.42 85.8969C388.553 86.4429 388.943 86.7277 389.364 86.609Z" fill="#C6C1B6"/>
<path d="M393.384 86.3954C394.372 86.3954 394.374 84.3539 393.384 84.3539C392.397 84.3539 392.395 86.3954 393.384 86.3954Z" fill="#C6C1B6"/>
<path d="M368.761 102.3C369.617 101.991 370.474 101.689 371.331 101.386C371.718 101.249 371.994 100.656 371.867 100.134C371.738 99.6055 371.338 99.2732 370.922 99.4216C370.066 99.7242 369.209 100.027 368.353 100.335C367.965 100.472 367.689 101.065 367.816 101.588C367.945 102.116 368.345 102.448 368.761 102.3Z" fill="#C6C1B6"/>
<path d="M367.127 112.044C368.526 111.629 369.926 111.207 371.326 110.792C371.718 110.673 371.986 110.044 371.862 109.534C371.73 108.994 371.338 108.697 370.918 108.822C369.518 109.243 368.118 109.664 366.718 110.08C366.326 110.199 366.059 110.828 366.182 111.332C366.316 111.878 366.706 112.169 367.127 112.044Z" fill="#C6C1B6"/>
<path d="M371.764 110.81C372.752 110.81 372.754 108.768 371.764 108.768C370.777 108.768 370.775 110.81 371.764 110.81Z" fill="#C6C1B6"/>
<path d="M386.036 107.267C387.763 106.139 389.489 105.012 391.215 103.884C391.587 103.641 391.689 102.941 391.49 102.49C391.269 101.985 390.814 101.879 390.44 102.122C388.714 103.249 386.988 104.377 385.261 105.505C384.89 105.748 384.788 106.448 384.986 106.899C385.208 107.404 385.663 107.51 386.036 107.267Z" fill="#C6C1B6"/>
<path d="M399.707 106.009C401.325 105.315 402.943 104.614 404.56 103.92C404.941 103.754 405.228 103.208 405.096 102.668C404.973 102.163 404.561 101.778 404.152 101.956C402.534 102.65 400.917 103.35 399.299 104.045C398.918 104.211 398.632 104.757 398.763 105.297C398.887 105.807 399.298 106.187 399.707 106.009Z" fill="#C6C1B6"/>
<path d="M352.729 109.575C354.449 109.403 356.112 108.756 357.62 107.641C357.971 107.386 358.116 106.703 357.895 106.246C357.666 105.777 357.221 105.605 356.845 105.884C356.517 106.127 356.182 106.353 355.837 106.543C355.897 106.513 355.884 106.519 355.798 106.567C355.749 106.59 355.699 106.62 355.649 106.644C355.574 106.685 355.499 106.721 355.423 106.757C355.234 106.846 355.043 106.929 354.851 107.006C354.492 107.148 354.127 107.267 353.759 107.362C353.667 107.386 353.575 107.403 353.482 107.427C353.429 107.439 353.376 107.451 353.323 107.457C353.236 107.475 353.217 107.481 353.266 107.469C353.315 107.457 353.296 107.463 353.208 107.48C353.156 107.486 353.103 107.492 353.049 107.498C352.942 107.516 352.836 107.528 352.729 107.54C352.329 107.575 351.942 107.979 351.962 108.555C351.979 109.071 352.3 109.617 352.729 109.575Z" fill="#C6C1B6"/>
<path d="M358.858 99.6529C360.113 99.8428 361.401 99.6826 362.614 99.2198C363 99.0773 363.279 98.4958 363.15 97.9676C363.023 97.4513 362.619 97.1012 362.206 97.2555C361.929 97.3623 361.649 97.4513 361.367 97.5225C361.279 97.5462 361.192 97.5641 361.105 97.5819C361.066 97.5937 360.869 97.6352 361.046 97.5996C360.904 97.6293 360.759 97.6411 360.616 97.6589C360.03 97.7183 359.442 97.7065 358.858 97.6174C358.458 97.5581 358.074 98.1278 358.091 98.6381C358.111 99.2375 358.43 99.5936 358.858 99.6529Z" fill="#C6C1B6"/>
<path d="M366.735 91.4338C367.809 91.867 368.883 92.3002 369.957 92.7393C370.341 92.8936 370.811 92.5554 370.901 92.0272C370.996 91.4753 370.776 90.9412 370.365 90.7751C369.291 90.3359 368.217 89.9027 367.143 89.4695C366.759 89.3092 366.29 89.6535 366.199 90.1757C366.104 90.7276 366.324 91.2617 366.735 91.4338Z" fill="#C6C1B6"/>
<path d="M370.474 92.8165C371.462 92.8165 371.463 90.7809 370.474 90.7809C369.486 90.7809 369.485 92.8165 370.474 92.8165Z" fill="#C6C1B6"/>
<path d="M378.045 90.3241C378.338 90.7573 378.776 90.971 379.206 90.9947C379.643 91.0244 380.073 90.7929 380.391 90.4013C380.531 90.2292 380.615 89.9323 380.615 89.6831C380.615 89.4279 380.532 89.1312 380.391 88.9591C380.244 88.7811 380.052 88.6505 379.848 88.6624C379.64 88.6743 379.459 88.7692 379.305 88.9591L379.242 89.0303C379.293 88.9769 379.345 88.9235 379.397 88.8701C379.343 88.9235 379.286 88.971 379.225 89.0066C379.286 88.971 379.348 88.9354 379.409 88.8998C379.331 88.9413 379.251 88.971 379.169 88.9888C379.237 88.9769 379.305 88.9651 379.373 88.9532C379.289 88.9651 379.206 88.9651 379.123 88.9473C379.191 88.9651 379.259 88.9769 379.327 88.9888C379.244 88.971 379.164 88.9413 379.086 88.8998C379.148 88.9354 379.208 88.9709 379.27 89.0006C379.204 88.965 379.141 88.9176 379.084 88.8583C379.136 88.9117 379.187 88.9651 379.239 89.0185L379.13 88.8819C379.003 88.698 378.773 88.5852 378.587 88.5852C378.399 88.5852 378.174 88.698 378.045 88.8819C377.911 89.0778 377.811 89.333 377.82 89.606C377.829 89.8849 377.903 90.1164 378.045 90.3241Z" fill="#C6C1B6"/>
<path d="M366.608 79.0366C367.576 79.179 368.544 79.3155 369.512 79.4579C369.695 79.4817 369.93 79.3274 370.055 79.1612C370.188 78.9832 370.288 78.6923 370.28 78.4371C370.26 77.8377 369.942 77.4817 369.512 77.4224C368.544 77.2799 367.576 77.1375 366.608 77.001C366.425 76.9714 366.19 77.1316 366.065 77.2978C365.932 77.4758 365.831 77.7666 365.84 78.0158C365.86 78.6211 366.179 78.9773 366.608 79.0366Z" fill="#C6C1B6"/>
<path d="M346.071 78.627C346.658 78.7754 347.247 78.7635 347.827 78.5617C348.4 78.36 348.911 77.9801 349.362 77.4757C349.505 77.3154 349.587 76.995 349.587 76.7517C349.587 76.5025 349.503 76.2056 349.362 76.0335C349.034 75.6359 348.605 75.6656 348.277 76.0335L348.182 76.1345C348.22 76.1167 348.329 75.992 348.224 76.087C348.163 76.1463 348.101 76.1998 348.037 76.2532C347.909 76.3541 347.776 76.4431 347.639 76.5202C347.7 76.4846 347.761 76.449 347.822 76.4193C347.571 76.5558 347.31 76.6508 347.041 76.6983C347.108 76.6864 347.177 76.6746 347.245 76.6627C346.975 76.7102 346.705 76.7102 346.435 76.6627C346.503 76.6746 346.571 76.6864 346.639 76.6983C346.586 76.6923 346.532 76.6805 346.479 76.6627C346.273 76.6152 346.074 76.6211 345.887 76.7694C345.728 76.8941 345.577 77.1315 345.535 77.3748C345.449 77.8793 345.649 78.5261 346.071 78.627Z" fill="#C6C1B6"/>
<path d="M339.705 97.9676C340.669 97.7955 341.634 97.6175 342.599 97.4394C342.775 97.4097 342.972 97.1664 343.057 96.9765C343.154 96.7569 343.195 96.4306 343.135 96.1873C343.075 95.9439 342.96 95.7065 342.782 95.5819C342.587 95.4454 342.408 95.4395 342.191 95.4751C341.226 95.6532 340.261 95.8311 339.297 96.0032C339.121 96.0388 338.923 96.2821 338.838 96.472C338.742 96.6916 338.701 97.0121 338.761 97.2614C338.821 97.5047 338.936 97.742 339.114 97.8667C339.309 98.0031 339.488 98.0092 339.705 97.9676Z" fill="#C6C1B6"/>
<path d="M340.882 108.745C342.188 109.208 343.525 109.279 344.859 109.024C345.036 108.994 345.233 108.751 345.318 108.555C345.414 108.341 345.455 108.015 345.395 107.771C345.254 107.19 344.879 106.976 344.451 107.059C344.361 107.077 344.363 107.077 344.457 107.059L344.358 107.077C344.28 107.089 344.203 107.095 344.126 107.107C343.993 107.119 343.86 107.131 343.726 107.136C343.437 107.154 343.148 107.148 342.86 107.125C342.727 107.119 342.594 107.101 342.461 107.083C342.439 107.077 342.199 107.041 342.298 107.059C342.397 107.077 342.159 107.03 342.136 107.024C341.852 106.958 341.569 106.875 341.29 106.78C340.902 106.644 340.438 106.952 340.346 107.493C340.254 108.027 340.467 108.596 340.882 108.745Z" fill="#C6C1B6"/>
<path d="M345.304 109.095C346.292 109.095 346.294 107.053 345.304 107.053C344.317 107.053 344.315 109.095 345.304 109.095Z" fill="#C6C1B6"/>
<path d="M352.944 98.8695C353.482 98.7271 354.02 98.5906 354.558 98.4482C354.739 98.4007 354.926 98.1811 355.016 97.9794C355.113 97.7598 355.154 97.4394 355.094 97.1961C355.034 96.9468 354.919 96.7094 354.741 96.5848C354.551 96.4542 354.362 96.4246 354.15 96.4839C353.612 96.6263 353.074 96.7628 352.536 96.9052C352.355 96.9527 352.167 97.1664 352.077 97.3741C351.981 97.5937 351.94 97.9141 352 98.1574C352.06 98.4067 352.175 98.6441 352.352 98.7687C352.543 98.8993 352.732 98.9289 352.944 98.8695Z" fill="#C6C1B6"/>
<path d="M362.631 107.516C362.729 107.392 362.829 107.267 362.932 107.154C362.981 107.095 363.03 107.042 363.08 106.988C363.117 106.947 363.222 106.852 363.057 107.012L363.133 106.935C363.352 106.715 363.581 106.519 363.818 106.347C363.929 106.264 364.043 106.181 364.158 106.11C364.223 106.068 364.288 106.027 364.354 105.985C364.376 105.973 364.482 105.914 364.373 105.973C364.263 106.038 364.369 105.979 364.392 105.967C364.652 105.825 364.919 105.712 365.19 105.623C365.579 105.487 365.852 104.887 365.726 104.365C365.596 103.837 365.199 103.516 364.782 103.659C363.568 104.074 362.445 104.917 361.546 106.074C361.257 106.448 361.244 107.148 361.546 107.516C361.856 107.896 362.323 107.914 362.631 107.516Z" fill="#C6C1B6"/>
<path d="M358.858 113.368C360.115 113.51 361.394 113.35 362.613 112.923C363 112.786 363.275 112.187 363.149 111.67C363.02 111.136 362.62 110.81 362.205 110.958C361.922 111.059 361.636 111.142 361.347 111.214C361.28 111.225 361.214 111.243 361.147 111.255C361.102 111.267 361.058 111.273 361.014 111.285C361.095 111.267 361.107 111.267 361.05 111.279C360.904 111.297 360.759 111.32 360.613 111.338C360.029 111.403 359.442 111.397 358.858 111.332C358.457 111.285 358.072 111.831 358.09 112.353C358.11 112.94 358.428 113.32 358.858 113.368Z" fill="#C6C1B6"/>
<path d="M380.085 111.106C381.373 111.925 382.812 111.931 384.107 111.142C384.473 110.917 384.592 110.181 384.382 109.748C384.139 109.243 383.723 109.142 383.332 109.38L383.233 109.439C383.334 109.386 383.345 109.38 383.266 109.415C383.207 109.445 383.148 109.475 383.088 109.498C382.959 109.558 382.828 109.599 382.696 109.635C382.642 109.653 382.59 109.664 382.536 109.676C382.451 109.694 382.465 109.694 382.579 109.67L382.472 109.682C382.346 109.7 382.22 109.706 382.093 109.706C381.967 109.706 381.842 109.688 381.716 109.676C381.629 109.664 381.644 109.665 381.758 109.688L381.652 109.664C381.598 109.653 381.545 109.635 381.492 109.623C381.369 109.587 381.247 109.54 381.128 109.486C381.073 109.463 380.968 109.439 380.925 109.392C381.024 109.451 381.036 109.457 380.958 109.409L380.86 109.35C380.499 109.118 380.015 109.202 379.81 109.712C379.629 110.169 379.699 110.863 380.085 111.106Z" fill="#C6C1B6"/>
<path d="M375.832 107.736C377.371 107.036 378.847 106.786 380.477 106.958C380.878 107 381.262 106.46 381.244 105.943C381.224 105.35 380.906 104.97 380.477 104.923C378.774 104.739 377.038 105.036 375.423 105.771C375.045 105.944 374.754 106.478 374.888 107.024C375.009 107.522 375.425 107.926 375.832 107.736Z" fill="#C6C1B6"/>
<path d="M389.512 110.377C390.803 110.377 392.093 110.377 393.384 110.377C393.786 110.377 394.171 109.908 394.152 109.362C394.133 108.81 393.815 108.341 393.384 108.341C392.093 108.341 390.803 108.341 389.512 108.341C389.11 108.341 388.726 108.81 388.745 109.362C388.763 109.914 389.082 110.377 389.512 110.377Z" fill="#C6C1B6"/>
<path d="M412.1 105.249C413.35 105.326 414.587 104.953 415.708 104.229C416.07 103.991 416.197 103.273 415.983 102.834C415.745 102.341 415.32 102.217 414.934 102.466C414.863 102.513 414.794 102.555 414.722 102.597C414.689 102.62 414.525 102.739 414.691 102.62C414.577 102.703 414.431 102.751 414.308 102.804C414.059 102.917 413.806 103.006 413.548 103.077L413.175 103.166C413.283 103.148 413.293 103.148 413.206 103.16L413.09 103.178C413.032 103.19 412.974 103.196 412.916 103.202C412.644 103.226 412.372 103.231 412.1 103.214C411.698 103.19 411.314 103.7 411.332 104.234C411.351 104.804 411.669 105.225 412.1 105.249Z" fill="#C6C1B6"/>
<path d="M400.678 96.7628C401.323 96.0448 401.967 95.3327 402.611 94.6146C402.754 94.4544 402.836 94.1338 402.836 93.8964C402.836 93.6472 402.752 93.3445 402.611 93.1784C402.465 92.9944 402.273 92.8639 402.068 92.8757C401.855 92.8876 401.689 92.9944 401.525 93.1784C400.881 93.8905 400.237 94.6086 399.593 95.3207C399.45 95.4809 399.368 95.8015 399.368 96.0389C399.368 96.294 399.451 96.5907 399.593 96.7628C399.739 96.9409 399.931 97.0714 400.135 97.0596C400.349 97.0477 400.514 96.9468 400.678 96.7628Z" fill="#C6C1B6"/>
<path d="M397.712 90.5674C399.097 91.0599 400.483 91.5525 401.868 92.0451C402.256 92.1875 402.72 91.8729 402.812 91.3388C402.904 90.7988 402.691 90.2291 402.276 90.0808C400.891 89.5882 399.505 89.0956 398.12 88.6031C397.733 88.4666 397.269 88.7752 397.176 89.3152C397.084 89.8552 397.297 90.4249 397.712 90.5674Z" fill="#C6C1B6"/>
<path d="M409.198 87.7009C409.782 87.6 410.37 87.5762 410.957 87.6356C411.099 87.6534 411.246 87.6652 411.387 87.6949C411.204 87.6534 411.424 87.7068 411.446 87.7068C411.523 87.7246 411.599 87.7425 411.675 87.7603C411.97 87.8315 412.261 87.9264 412.548 88.0391C412.933 88.1875 413.401 87.8611 413.492 87.327C413.586 86.781 413.369 86.2351 412.956 86.0749C411.743 85.606 410.452 85.4517 409.198 85.6594C408.987 85.695 408.812 85.7544 408.655 85.9621C408.522 86.1342 408.422 86.4249 408.43 86.6801C408.447 87.1727 408.771 87.7721 409.198 87.7009Z" fill="#C6C1B6"/>
<path d="M423.543 89.226C425.041 89.8314 426.538 90.4366 428.036 91.0479C428.42 91.2022 428.889 90.858 428.98 90.3357C429.074 89.7838 428.855 89.2498 428.444 89.0836C426.946 88.4723 425.448 87.8671 423.951 87.2617C423.567 87.1015 423.097 87.4457 423.007 87.9739C422.912 88.5199 423.132 89.0599 423.543 89.226Z" fill="#C6C1B6"/>
<path d="M438.883 94.1041C439.851 94.1041 440.819 94.1041 441.787 94.1041C442.189 94.1041 442.573 93.6353 442.554 93.0834C442.536 92.5315 442.217 92.0627 441.787 92.0627C440.819 92.0627 439.851 92.0627 438.883 92.0627C438.482 92.0627 438.097 92.5315 438.116 93.0834C438.134 93.6353 438.453 94.1041 438.883 94.1041Z" fill="#C6C1B6"/>
<path d="M238.061 111.688C238.918 111.51 239.775 111.338 240.631 111.16C240.809 111.124 241.004 110.893 241.09 110.691C241.186 110.477 241.227 110.151 241.168 109.908C241.107 109.664 240.992 109.427 240.815 109.302C240.621 109.166 240.439 109.154 240.223 109.196C239.366 109.374 238.51 109.546 237.653 109.724C237.476 109.759 237.281 109.991 237.194 110.187C237.098 110.406 237.057 110.727 237.117 110.976C237.177 111.219 237.292 111.457 237.47 111.581C237.664 111.718 237.845 111.73 238.061 111.688Z" fill="#C6C1B6"/>
<path d="M245.146 106.857C246.565 106.543 247.929 105.973 249.246 105.214C249.615 104.994 249.728 104.24 249.521 103.819C249.274 103.309 248.866 103.22 248.471 103.451C248.426 103.481 248.382 103.504 248.337 103.528C248.408 103.493 248.402 103.493 248.318 103.54C248.25 103.576 248.183 103.611 248.115 103.647C247.956 103.73 247.796 103.813 247.636 103.89C247.326 104.039 247.013 104.175 246.698 104.3C246.054 104.549 245.4 104.751 244.738 104.893C244.341 104.982 244.084 105.665 244.202 106.151C244.341 106.715 244.721 106.952 245.146 106.857Z" fill="#C6C1B6"/>
<path d="M254.163 101.469C254.535 101.6 254.902 101.754 255.264 101.926C255.422 102.003 255.578 102.086 255.735 102.163C255.818 102.211 255.823 102.211 255.751 102.175C255.795 102.199 255.839 102.223 255.883 102.246C255.971 102.3 256.059 102.353 256.146 102.407C256.821 102.822 257.467 103.321 258.079 103.884C258.41 104.187 258.946 103.979 259.129 103.516C259.336 103 259.207 102.448 258.854 102.122C257.557 100.929 256.096 100.045 254.571 99.5046C254.184 99.3681 253.72 99.6767 253.627 100.217C253.536 100.751 253.748 101.327 254.163 101.469Z" fill="#C6C1B6"/>
<path d="M249.144 110.798C249.452 110.792 249.761 110.798 250.069 110.834C250.201 110.845 250.332 110.863 250.464 110.887C250.554 110.899 250.551 110.899 250.457 110.881C250.5 110.893 250.543 110.899 250.587 110.911C250.652 110.923 250.718 110.94 250.783 110.952C251.369 111.095 251.942 111.314 252.498 111.599C252.873 111.795 253.356 111.386 253.442 110.887C253.542 110.305 253.307 109.843 252.906 109.635C251.714 109.024 250.422 108.727 249.144 108.762C248.743 108.768 248.358 109.22 248.377 109.777C248.395 110.323 248.714 110.81 249.144 110.798Z" fill="#C6C1B6"/>
<path d="M266.345 109.136C267.778 109.783 269.259 110.181 270.764 110.383C271.164 110.436 271.549 109.878 271.531 109.362C271.511 108.768 271.193 108.4 270.764 108.347C270.578 108.323 270.392 108.294 270.207 108.264C270.34 108.282 270.094 108.24 270.094 108.24C270.015 108.228 269.935 108.211 269.857 108.193C269.501 108.116 269.147 108.027 268.795 107.926C268.104 107.73 267.423 107.475 266.752 107.172C266.372 107 265.897 107.368 265.809 107.884C265.712 108.448 265.937 108.952 266.345 109.136Z" fill="#C6C1B6"/>
<path d="M272.901 98.3356C274.516 97.6294 276.131 96.9232 277.746 96.217C278.127 96.0509 278.414 95.5048 278.282 94.9589C278.159 94.4604 277.746 94.0687 277.338 94.2526C275.723 94.9588 274.108 95.6651 272.493 96.3713C272.113 96.5375 271.825 97.0834 271.957 97.6294C272.08 98.1279 272.493 98.5196 272.901 98.3356Z" fill="#C6C1B6"/>
<path d="M269.986 89.7364C271.059 89.1548 272.132 88.5792 273.204 87.9977C273.397 87.8908 273.554 87.7781 273.663 87.5288C273.759 87.3092 273.8 86.9887 273.74 86.7454C273.624 86.2706 273.194 85.8137 272.796 86.0332C271.723 86.6089 270.651 87.1905 269.578 87.7721C269.385 87.8789 269.229 87.9917 269.119 88.2409C269.023 88.4605 268.982 88.7809 269.042 89.0243C269.157 89.499 269.588 89.95 269.986 89.7364Z" fill="#C6C1B6"/>
<path d="M293.029 81.256C293.567 81.256 294.105 81.256 294.643 81.256C294.84 81.256 295.046 81.1373 295.186 80.9533C295.318 80.7812 295.419 80.4905 295.41 80.2353C295.391 79.6834 295.073 79.2146 294.643 79.2146C294.105 79.2146 293.567 79.2146 293.029 79.2146C292.833 79.2146 292.626 79.3273 292.486 79.5172C292.353 79.6893 292.253 79.9801 292.262 80.2353C292.28 80.7872 292.599 81.256 293.029 81.256Z" fill="#C6C1B6"/>
<path d="M287.667 103.475C289.502 104.377 291.408 104.947 293.353 105.225C293.766 105.285 294.12 104.715 294.12 104.211C294.12 103.605 293.767 103.249 293.353 103.19C291.551 102.929 289.775 102.347 288.076 101.505C287.687 101.315 287.234 101.724 287.131 102.217C287.013 102.786 287.277 103.279 287.667 103.475Z" fill="#C6C1B6"/>
<path d="M283.033 111.587C283.894 111.73 284.754 111.872 285.615 112.009C285.796 112.038 286.035 111.878 286.158 111.712C286.291 111.534 286.391 111.249 286.383 110.994C286.374 110.727 286.308 110.454 286.158 110.27C285.998 110.074 285.829 110.009 285.615 109.973C284.754 109.831 283.894 109.688 283.033 109.552C282.852 109.522 282.613 109.682 282.491 109.849C282.357 110.027 282.257 110.317 282.266 110.567C282.275 110.834 282.34 111.107 282.491 111.291C282.65 111.487 282.819 111.552 283.033 111.587Z" fill="#C6C1B6"/>
<path d="M308.518 113.38C309.271 113.38 310.024 113.38 310.777 113.38C311.178 113.38 311.563 112.911 311.544 112.359C311.526 111.807 311.207 111.338 310.777 111.338C310.024 111.338 309.271 111.338 308.518 111.338C308.117 111.338 307.732 111.807 307.751 112.359C307.769 112.911 308.087 113.38 308.518 113.38Z" fill="#C6C1B6"/>
<path d="M321.951 107.332C323.509 107.036 325.033 106.49 326.493 105.706C326.864 105.504 327.167 105.018 327.029 104.454C326.913 103.979 326.483 103.528 326.085 103.742C324.625 104.525 323.101 105.071 321.543 105.362C321.144 105.439 320.89 106.139 321.007 106.62C321.148 107.196 321.523 107.409 321.951 107.332Z" fill="#C6C1B6"/>
<path d="M302.201 86.0332C304.189 85.2914 306.178 84.5496 308.166 83.8019C308.681 83.612 309.052 82.8346 308.881 82.1343C308.711 81.434 308.174 80.9771 307.622 81.1848C305.633 81.9266 303.645 82.6743 301.657 83.4161C301.142 83.612 300.771 84.3835 300.942 85.0897C301.112 85.7841 301.649 86.2409 302.201 86.0332Z" fill="white"/>
<path d="M299.196 96.0625C300.776 95.7005 302.293 95.0537 303.759 94.1932C304.25 93.9083 304.401 92.9054 304.126 92.3357C303.797 91.6592 303.252 91.5404 302.726 91.849C302.681 91.8728 302.36 92.0805 302.599 91.9262C302.527 91.9678 302.449 92.0093 302.375 92.0449C302.2 92.1399 302.024 92.2289 301.847 92.3179C301.506 92.4781 301.161 92.6324 300.813 92.7689C300.103 93.0537 299.381 93.2733 298.652 93.4454C298.123 93.5641 297.778 94.4661 297.937 95.113C298.121 95.8726 298.629 96.1931 299.196 96.0625Z" fill="white"/>
<path d="M311.795 91.6117C311.999 91.5583 312.205 91.5049 312.41 91.4575C312.521 91.4337 312.633 91.41 312.743 91.3863C312.968 91.3388 312.606 91.41 312.853 91.3684C313.252 91.3091 313.652 91.2558 314.053 91.232C314.872 91.1786 315.692 91.2142 316.508 91.321C317.042 91.3982 317.554 90.6445 317.531 89.962C317.504 89.1668 317.08 88.686 316.508 88.6089C314.75 88.3715 312.979 88.5199 311.251 88.9946C310.726 89.1371 310.373 89.9976 310.536 90.6682C310.716 91.4041 311.233 91.772 311.795 91.6117Z" fill="white"/>
<path d="M315.183 85.1253C316.289 85.1253 317.394 85.1253 318.501 85.1253C319.036 85.1253 319.549 84.5022 319.524 83.7663C319.499 83.0304 319.074 82.4073 318.501 82.4073C317.394 82.4073 316.289 82.4073 315.183 82.4073C314.647 82.4073 314.135 83.0304 314.16 83.7663C314.184 84.5022 314.609 85.1253 315.183 85.1253Z" fill="white"/>
<path d="M326.795 82.9237C328.233 82.9237 329.67 82.9237 331.107 82.9237C331.643 82.9237 332.156 82.3006 332.131 81.5647C332.106 80.8288 331.681 80.2057 331.107 80.2057C329.67 80.2057 328.233 80.2057 326.795 80.2057C326.259 80.2057 325.747 80.8347 325.771 81.5647C325.796 82.3006 326.221 82.9237 326.795 82.9237Z" fill="white"/>
<path d="M322.486 95.3327C323.814 95.1902 325.141 95.0477 326.469 94.9053C327.001 94.8519 327.518 94.3238 327.492 93.5464C327.469 92.8639 327.04 92.128 326.469 92.1933C325.141 92.3298 323.814 92.4722 322.486 92.6146C321.954 92.674 321.437 93.2022 321.463 93.9736C321.486 94.662 321.915 95.392 322.486 95.3327Z" fill="white"/>
<path d="M337.458 82.0633C337.558 81.9505 337.659 81.8437 337.762 81.7369C337.693 81.8081 337.624 81.8793 337.555 81.9446C338.09 81.3986 338.673 80.9475 339.294 80.5974C339.212 80.6389 339.13 80.6864 339.049 80.7339C339.463 80.4965 339.89 80.3125 340.327 80.176C340.849 80.0099 341.208 79.185 341.042 78.5026C340.866 77.7845 340.342 77.3809 339.784 77.553C338.384 77.9981 337.102 78.9061 336.011 80.1405C335.82 80.36 335.711 80.7813 335.711 81.1018C335.711 81.4341 335.823 81.8378 336.011 82.0633C336.446 82.5974 337.022 82.5558 337.458 82.0633Z" fill="white"/>
<path d="M279.684 86.0036C280.79 86.0036 281.896 86.0036 283.002 86.0036C283.537 86.0036 284.05 85.3806 284.025 84.6506C284 83.9088 283.575 83.2916 283.002 83.2916C281.896 83.2916 280.79 83.2916 279.684 83.2916C279.149 83.2916 278.636 83.9148 278.661 84.6506C278.686 85.3806 279.11 86.0036 279.684 86.0036Z" fill="white"/>
<path d="M280.679 99.659C281.674 99.659 282.669 99.659 283.665 99.659C284.2 99.659 284.713 99.0299 284.689 98.3C284.664 97.5641 284.239 96.941 283.665 96.941C282.669 96.941 281.674 96.941 280.679 96.941C280.144 96.941 279.631 97.5641 279.656 98.3C279.681 99.0359 280.105 99.659 280.679 99.659Z" fill="white"/>
<path d="M310.212 104.852C311.869 105.036 313.525 105.22 315.182 105.403C315.717 105.463 316.228 104.739 316.205 104.044C316.178 103.255 315.755 102.751 315.182 102.686C313.525 102.502 311.869 102.318 310.212 102.134C309.677 102.074 309.166 102.804 309.189 103.493C309.215 104.282 309.639 104.786 310.212 104.852Z" fill="white"/>
<path d="M348.699 91.8076C350.606 91.4871 352.418 90.8047 354.163 89.7246C354.65 89.422 354.81 88.4427 354.53 87.8671C354.207 87.2024 353.651 87.0541 353.13 87.3805C353.021 87.4458 352.91 87.511 352.8 87.5763C352.781 87.5881 352.506 87.7425 352.711 87.6297C352.515 87.7365 352.318 87.8434 352.12 87.9384C351.737 88.1283 351.349 88.3003 350.957 88.4487C350.564 88.5971 350.168 88.7276 349.768 88.8404C349.561 88.8997 349.353 88.9531 349.144 89.0005C349.055 89.0183 348.965 89.0362 348.876 89.054C348.816 89.0658 348.756 89.0777 348.696 89.0896C348.818 89.0718 348.819 89.0718 348.699 89.0896C348.169 89.1786 347.648 89.6534 347.675 90.4486C347.697 91.1073 348.129 91.9026 348.699 91.8076Z" fill="white"/>
<path d="M364.948 90.0094C366.387 89.95 367.825 89.6058 369.18 88.9649C369.682 88.7216 370.074 88.0273 369.895 87.2914C369.735 86.6327 369.175 86.0867 368.636 86.3419C368.012 86.6386 367.374 86.8759 366.723 87.0421C366.564 87.0837 366.404 87.1193 366.243 87.1549C366.19 87.1608 365.942 87.2379 366.218 87.1608C366.134 87.1845 366.043 87.1905 365.958 87.2024C365.623 87.2499 365.286 87.2796 364.948 87.2914C364.414 87.3092 363.9 87.9027 363.925 88.6505C363.95 89.3685 364.375 90.0331 364.948 90.0094Z" fill="white"/>
<path d="M377.289 85.4577C378.28 85.6417 379.271 85.8316 380.262 86.0156C380.546 86.069 380.792 86.0808 381.051 85.8791C381.263 85.7129 381.465 85.3925 381.521 85.0661C381.58 84.7219 381.568 84.3302 381.418 84.0216C381.284 83.7486 381.063 83.446 380.806 83.3985C379.815 83.2086 378.824 83.0246 377.833 82.8347C377.549 82.7813 377.303 82.7753 377.045 82.9771C376.833 83.1373 376.63 83.4638 376.575 83.7843C376.515 84.1344 376.528 84.526 376.677 84.8346C376.811 85.1076 377.033 85.4103 377.289 85.4577Z" fill="white"/>
<path d="M330.961 109.16C332.396 108.27 333.831 107.386 335.266 106.495C335.753 106.193 335.914 105.213 335.633 104.638C335.31 103.973 334.754 103.831 334.233 104.151C332.798 105.041 331.363 105.926 329.928 106.816C329.442 107.119 329.281 108.098 329.561 108.673C329.884 109.338 330.44 109.48 330.961 109.16Z" fill="white"/>
<path d="M382.635 440.788C392.615 453.396 412.317 452.77 428.791 451.057C458.945 447.922 489.179 445.275 519.498 444.346C554.533 443.278 589.598 444.507 624.652 444.981C695.683 445.944 766.714 443.8 837.72 441.661C841.555 441.542 846.012 441.106 848.064 438.018C851.335 433.09 845.409 427.241 839.896 424.713C826.45 418.556 811.335 416.611 796.45 415.629C769.468 413.851 742.366 414.975 715.33 414.263C670.962 413.101 626.749 407.006 582.381 408.215C543.666 409.273 505.469 415.871 466.993 419.495C451.45 420.956 433.96 419.253 418.786 422.583C405.11 425.581 377.053 435.229 382.635 440.788Z" fill="#E8E8E8"/>
<path d="M442.426 234.916C433.329 276.952 431.528 320.099 424.271 362.451C422.187 374.637 419.586 386.926 413.732 397.959C408.798 407.259 401.481 417.972 406.813 427.075C410.673 433.659 419.531 435.801 427.46 436.432C446.34 437.933 465.221 434.605 483.932 431.819C572.004 418.725 662.046 417.534 750.47 428.298C762.512 429.767 774.544 431.452 786.665 432.101C789.286 432.243 792.081 432.294 794.345 431.028C797.354 429.343 798.572 425.761 798.712 422.457C799.269 409.227 787.287 399.079 779.035 388.385C768.491 374.717 763.338 358.045 759.264 341.572C750.351 305.555 745.676 268.702 736.827 232.671C727.979 196.646 714.569 160.832 690.421 131.744C666.278 102.656 630.064 80.9395 590.994 79.8946C575.56 79.4851 560.122 82.2574 545.588 87.1995C529.97 92.504 513.238 100.783 502.724 113.322C494.91 122.646 488.797 133.872 481.421 143.629C461.048 170.575 449.399 202.694 442.426 234.916Z" fill="#B8AD8A"/>
<path d="M496.841 141.01C462.619 200.659 444.531 268.488 444.75 336.331C444.759 338.08 444.814 339.951 445.899 341.371C447.263 343.157 449.805 343.665 452.114 343.971C477.08 347.285 502.375 342.819 527.555 341.639C574.591 339.439 621.368 348.747 666.881 360.185C671.27 361.285 675.918 362.413 680.292 361.252C688 359.207 691.927 350.571 691.101 343.044C690.279 335.518 685.965 328.804 682.084 322.185C654.435 275.079 644.458 220.648 622.229 171.051C614.277 153.313 604.354 135.716 588.639 123.446C556.83 98.6096 515.731 108.097 496.841 141.01Z" fill="#C6BA97"/>
<path d="M779.024 388.387C768.474 374.718 763.318 358.047 759.242 341.568C750.324 305.551 745.646 268.696 736.793 232.665C727.94 196.639 714.523 160.824 690.362 131.74C666.205 102.652 629.971 80.9343 590.88 79.8894C589.282 79.847 587.68 79.847 586.083 79.8705C606.098 88.3241 624.163 101.565 638.536 117.295C664.11 145.282 679.284 180.461 689.904 216.059C700.529 251.657 707.028 288.267 717.713 323.851C722.6 340.127 728.572 356.554 739.789 369.738C748.563 380.056 761.039 389.663 761.133 402.903C761.158 406.212 760.118 409.841 757.197 411.658C754.997 413.027 752.2 413.093 749.573 413.07C737.425 412.962 725.317 411.808 713.209 410.876C624.303 404.033 534.371 409.201 446.992 426.183C435.367 428.442 423.687 430.918 411.932 432.288C416.287 434.914 421.975 436.011 427.255 436.43C446.146 437.936 465.037 434.604 483.759 431.822C571.879 418.723 661.97 417.532 750.444 428.301C762.492 429.765 774.53 431.455 786.658 432.1C789.281 432.241 792.078 432.293 794.342 431.027C797.353 429.341 798.572 425.764 798.711 422.455C799.269 409.224 787.28 399.081 779.024 388.387Z" fill="#A3997C"/>
<path d="M487.437 281.088C483.902 281.088 480.508 279.895 477.912 277.176C474.009 273.084 472.901 266.658 473.545 260.815C474.184 254.971 476.33 249.466 478.097 243.9C484.911 222.428 486.219 199.298 492.653 177.691C496.971 163.199 504.293 148.835 515.4 139.196C521.489 133.916 530.644 129.365 539.2 129.365C544.84 129.365 550.221 131.347 554.285 136.406C559.516 142.926 558.473 153.185 554.534 160.696C550.601 168.212 544.361 173.923 539.15 180.457C524.26 199.148 518.135 224.002 512.634 247.968C510.473 257.386 508.112 267.278 501.917 274.282C498.218 278.467 492.673 281.088 487.437 281.088Z" fill="#D6CDB4"/>
<path d="M433.269 414.446C430.441 414.446 427.689 413.777 426.462 411.565C425.33 409.525 426.083 407.042 427.1 404.951C433.434 391.906 447.856 384.793 462.682 383.921C496.937 381.908 531.187 379.891 565.437 377.879C566.883 377.791 568.344 377.713 569.796 377.713C572.005 377.713 574.194 377.902 576.268 378.567C579.714 379.67 582.811 382.421 582.981 385.79C583.27 391.399 576.189 394.574 570.254 395.742C544.277 400.838 517.034 396.448 490.913 400.871C472.471 403.995 455.092 411.441 436.575 414.183C435.523 414.34 434.391 414.446 433.269 414.446Z" fill="#CCC4AB"/>
<path d="M592.181 104.622C617.499 111.39 641.993 120.643 659.605 144.147C661.468 146.634 696.474 144.755 698.889 142.736C698.889 142.736 666.019 96.1535 660.082 92.1902C638.396 77.7346 616.471 75.4539 589.896 75.0706C569.809 74.7855 550.83 82.9924 532.646 91.0265C527.266 93.4053 520.38 98.5277 515.963 102.281C530.207 96.9153 544.65 97.7752 552.976 98.1491C566.262 98.7427 579.413 101.206 592.181 104.622Z" fill="#A3997C"/>
<path d="M499.777 34.6147C493.072 30.7449 485.398 27.7811 480.355 22.3397C499.881 14.7274 519.626 7.05383 540.599 3.4577C548.636 2.07494 556.921 1.30566 564.993 2.4147C567.261 2.72617 569.748 3.33498 570.902 5.05282C571.548 6.02029 571.653 7.19067 572.115 8.23837C573.379 11.0841 577.158 12.5754 580.69 12.5754C584.221 12.5707 587.603 11.3862 590.915 10.3007C607.795 4.77439 625.565 1.33873 643.514 0.140022C650.636 -0.336632 659.18 0.163597 662.761 5.47756C663.487 6.54885 664 7.81363 665.183 8.52153C666.765 9.46539 668.903 9.05955 670.788 8.7056C686.31 5.79378 703.15 8.97457 715.758 17.1956C716.723 17.8233 717.723 18.5643 717.961 19.5883C718.588 22.3256 713.918 23.4912 712.177 25.8556C709.541 29.4376 714.594 33.5953 719.235 34.8837C723.87 36.1768 729.719 37.3849 730.838 41.4955C731.996 45.7382 726.953 49.2871 722.353 51.1182C703.688 58.5322 680.506 58.6125 665.964 71.1895C660.379 76.0221 656.639 82.4262 655.47 89.1654C654.878 92.5916 611.386 102.148 594.282 97.9905C582.177 95.0504 570.205 91.5298 557.782 89.6798C547.681 88.1743 541.414 89.4155 537.033 80.6942C528.165 63.0392 518.949 45.6768 499.777 34.6147Z" fill="#B8AD8A"/>
<path d="M718.56 34.8217C717.026 34.4008 715.448 33.6618 714.117 32.7404C690.382 36.73 669.862 50.9531 651.8 66.1538C642.91 73.6372 633.102 82.8746 630.695 94.3429C630.585 94.8527 630.516 95.3438 630.466 95.8256C643.57 93.5478 654.624 90.3206 654.922 88.6181C656.088 81.9391 659.821 75.5923 665.395 70.8029C679.908 58.3383 703.044 58.2588 721.672 50.9111C726.263 49.0963 731.296 45.5791 730.14 41.3744C729.023 37.3053 723.186 36.1033 718.56 34.8217Z" fill="#A3997C"/>
<path d="M531.589 47.5906C530.361 45.4171 529.49 42.9472 529.262 40.4914C526.375 36.9113 523.443 33.3829 519.457 31.0024C516.912 29.4781 514.114 28.5325 511.192 27.9491C511.058 28.5419 511.029 29.1582 511.162 29.7839C511.677 32.2491 514.223 33.7498 516.362 35.2318C527.276 42.7967 531.763 56.0071 535.284 68.3942C536.333 72.092 537.433 75.9356 540.067 78.8289C542.707 81.7222 547.381 83.3311 550.873 81.4211C548.624 73.5739 545.5 65.8443 540.508 59.2344C537.562 55.3249 533.981 51.8247 531.589 47.5906Z" fill="#A3997C"/>
<path d="M636.72 35.9988C635.178 33.4632 631.679 32.6101 628.576 32.7562C624.097 32.9589 620.185 34.5849 616.555 36.9131C617.092 38.6145 617.444 40.3819 617.665 42.1257C619.106 53.6019 615.952 65.1016 615.184 76.6344C615.039 78.8024 614.998 81.0693 615.968 83.0441C616.942 85.0235 619.211 86.5977 621.486 86.1735C623.846 85.7305 625.232 83.4635 626.13 81.371C629.183 74.2355 630.052 66.5674 630.805 58.9795C631.382 53.1447 630.544 43.6244 633.948 38.5202C634.676 37.4268 635.665 36.6727 636.75 36.0459L636.72 35.9988Z" fill="#A3997C"/>
<path d="M719.213 34.9008C714.564 33.6118 709.501 29.4521 712.142 25.8683C713.886 23.5028 718.565 22.3366 717.937 19.598C717.698 18.5734 716.696 17.8321 715.73 17.2041C703.098 8.97905 686.227 5.7967 670.676 8.70995C668.787 9.06407 666.645 9.47011 665.06 8.52578C663.874 7.81754 663.361 6.55214 662.634 5.48033C659.046 0.163773 650.486 -0.336704 643.351 0.140182C625.368 1.33948 607.564 4.77682 590.653 10.3059C587.335 11.3918 583.946 12.577 580.409 12.5817C576.871 12.5817 573.084 11.0896 571.818 8.24249C571.355 7.19428 571.25 6.02332 570.603 5.05539C569.447 3.33671 566.955 2.7276 564.683 2.41597C556.596 1.30639 548.295 2.07604 540.243 3.45948C519.395 7.02904 499.768 14.612 480.355 22.1713C480.859 23.1109 481.541 23.9514 482.393 24.5888C486.056 27.3132 491.113 27.3651 495.762 27.299C503.759 27.1809 512.27 27.1904 519.036 31.2227C525.06 34.8111 528.688 40.9917 533.377 46.0628C541.354 54.6939 552.914 60.2702 564.977 61.3089C577.035 62.3477 589.467 58.8348 598.959 51.7098C608.441 44.5849 616.369 33.4985 628.457 32.9413C631.536 32.7997 635.009 33.6543 636.539 36.1899C637.296 37.4458 637.471 38.9331 637.984 40.2929C640.341 46.5302 648.921 48.315 655.822 47.2573C664.662 45.9022 672.958 41.5536 681.917 41.5253C695.649 41.4875 707.892 51.5918 721.47 51.4737C721.759 51.3604 722.048 51.2566 722.337 51.1385C726.946 49.3113 731.998 45.7606 730.837 41.5158C729.716 37.408 723.857 36.1945 719.213 34.9008Z" fill="#8E856E"/>
<path d="M582.03 59.199C583.449 45.5764 578.805 32.127 574.733 18.982C573.855 16.1451 572.998 13.1724 573.389 10.27C572.932 9.8019 572.551 9.27763 572.29 8.69246C571.824 7.65789 571.719 6.49693 571.062 5.53259C569.903 3.83327 567.39 3.22935 565.103 2.92038C562.014 2.50375 558.889 2.35395 555.76 2.40544C555.785 7.12887 556.708 11.9834 557.28 16.2153C559.185 30.3341 560.419 49.3121 569.933 61.4882C573.976 61.4601 578.008 60.9404 581.915 59.9854C581.96 59.7186 582 59.4565 582.03 59.199Z" fill="#A0967A"/>
<path d="M645.26 46.3157C652.815 37.5032 658.706 27.4585 662.574 16.7813C663.542 14.0921 664.43 11.3138 666.074 8.94322C665.842 8.86357 665.615 8.7605 665.398 8.63869C664.198 7.93594 663.683 6.68035 662.947 5.61685C661.636 3.71004 659.659 2.43572 657.344 1.5971C656.951 6.31961 653.577 10.9625 650.606 15.0947C645.346 22.4033 640.933 30.232 637.448 38.4074C637.615 38.9977 637.776 39.588 637.993 40.1596C639.183 43.2423 641.932 45.2288 645.26 46.3157Z" fill="#A0967A"/>
<path d="M696.469 44.7186C697.833 43.7191 699.178 42.6904 700.527 41.7152C705.218 38.309 710.302 35.4172 715.645 33.0882C714.167 32.0936 712.951 30.8563 712.369 29.5462C707.065 31.094 701.473 31.8073 696.14 33.3405C690.797 34.8738 685.389 37.6152 682.132 41.8462C682.257 41.8413 682.381 41.8316 682.506 41.8316C687.301 41.8171 691.917 43.0786 696.469 44.7186Z" fill="#A0967A"/>
<path d="M533.121 87.8957C534.404 92.4425 546.032 93.3221 553.491 94.7256C569.413 97.7295 585.489 99.9597 601.641 101.406C606.244 101.815 610.852 102.166 615.475 102.209C629.305 102.344 643.165 99.7145 655.906 94.5285C658.223 93.5864 660.604 92.4858 662.092 90.5344C663.58 88.5782 663.82 85.5358 661.957 83.9064C659.756 81.9839 656.296 83.0028 653.52 84.0266C621.052 96.004 585.619 90.1307 551.923 83.8824C544.569 82.5174 540.959 81.6859 537.28 81.4648C534.858 81.3158 531.568 82.3828 533.121 87.8957Z" fill="#635C4C"/>
<path d="M621.578 88.9476C622.589 87.0552 624.418 85.649 626.406 84.6908C630.447 82.746 635.35 82.5172 639.575 84.0664C641.443 84.7576 643.217 85.8063 644.418 87.3412C645.619 88.8761 646.182 90.9354 645.589 92.7658C642.355 102.733 615.524 100.293 621.578 88.9476Z" fill="#635C4C"/>
<path d="M626.53 139.994C626.908 141.755 627.345 143.615 628.642 144.922C629.943 146.228 632.408 146.655 633.665 145.315C629.774 132.026 628.647 118.009 630.356 104.308C630.689 101.643 631.335 98.6698 633.695 97.2022C636.244 95.6115 639.781 96.5442 642.161 98.362C644.263 99.9716 645.788 102.164 647.085 104.422C652.551 113.947 654.374 124.925 656.118 135.657C657.569 135.354 659.015 135.051 660.466 134.748C660.878 122.549 655.636 110.822 649.401 100.161C648.283 98.2532 647.1 96.3264 645.406 94.8493C641.371 91.3366 635.315 91.2751 630.331 92.7238C625.889 94.0209 624.731 96.6341 623.887 100.829C621.268 113.79 623.797 127.249 626.53 139.994Z" fill="#635C4C"/>
<path d="M629.775 92.6314C629.174 91.9295 628.528 91.2532 627.629 90.8552C626.3 90.2731 625.144 89.8109 625.74 88.3299C626.078 87.4953 626.664 87.1443 627.659 87.0544C627.775 87.0459 627.901 87.0416 628.028 87.0416C630.028 87.0416 633.174 88.2786 634.588 89.1517C635.624 89.7851 636.462 90.7225 636.75 91.7583C636.563 91.754 636.381 91.754 636.194 91.754C634.098 91.754 631.992 92.0536 630.043 92.5587C629.952 92.5843 629.866 92.6058 629.775 92.6314Z" fill="#8E897E"/>
<path d="M633.79 95.8256C633.765 95.8256 633.74 95.8256 633.715 95.8256C632.346 95.7827 631.246 94.744 630.43 93.6863C630.211 93.4004 629.992 93.105 629.768 92.8096C629.858 92.781 629.942 92.7572 630.032 92.7286C631.953 92.1664 634.029 91.8329 636.095 91.8329C636.279 91.8329 636.458 91.8328 636.642 91.8376C636.722 92.1616 636.762 92.4951 636.747 92.8286C636.687 94.3485 635.373 95.8256 633.79 95.8256Z" fill="#8E897E"/>
<path d="M16.0426 474.485C46.2108 469.555 76.4325 480.018 106.329 486.601C149.969 496.216 194.839 497.634 239.365 496.24C310.225 494.017 380.711 484.775 451.077 475.539C452.177 475.395 453.397 475.184 454.083 474.245C455.673 472.08 452.934 469.33 450.609 468.166C441.168 463.423 431.727 458.68 422.285 453.937C412.34 448.945 402.262 443.901 391.471 441.759C375.839 438.655 359.811 441.817 344.005 443.685C296.727 449.281 249.212 443.364 201.938 440.887C160.324 438.712 118.803 440.911 77.8576 449.659C56.4451 454.239 35.6649 464.525 16.0426 474.485Z" fill="#E8E8E8"/>
<path d="M44.7635 440.48C72.3576 462.077 107.768 468.137 141.833 470.322C174.637 472.425 207.54 471.534 240.389 470.643C274.855 469.704 309.326 468.769 343.792 467.835C355.415 467.519 367.288 467.155 378.191 462.795C400.347 453.937 415.716 429.744 438.776 424.158C445.448 422.548 454.181 420.982 455.361 413.738C456.457 407.012 449.683 402.178 443.934 399.294C429.126 391.873 414.322 384.452 399.519 377.036C376.868 365.682 354.084 354.275 329.972 347.218C288.091 334.964 243.957 336.286 200.575 337.694C172.905 338.595 145.191 339.5 117.712 343.103C101.484 345.235 85.255 348.335 69.9482 354.515C48.2461 363.282 29.1004 377.937 10.2308 392.429C0.15686 400.166 -5.0671 410.509 6.904 417.504C11.7673 420.34 18.2916 420.138 23.4132 422.975C31.2336 427.305 37.6779 434.932 44.7635 440.48Z" fill="#B8AD8A"/>
<path d="M38.6087 278.763C30.0847 285.926 21.5651 293.088 13.041 300.245C7.56763 304.844 -3.19651 313.295 4.32106 321.43C9.12642 323.456 46.7186 327.581 68.1134 340.967C80.2671 348.565 95.6051 349.015 109.647 349.734C159.166 352.249 208.68 354.769 258.195 357.284C293.899 359.1 329.803 360.906 365.293 356.326C379.438 354.496 393.493 351.655 407.722 350.85C421.136 350.093 434.662 351.161 447.764 354.357C449.933 354.888 452.404 355.415 454.221 354.041C457.606 351.487 455.366 345.805 452.885 342.241C433.753 314.728 413.921 286.52 386.559 268.799C361.267 252.419 331.473 246.296 302.209 242.09C253.149 235.038 203.523 232.576 154.067 234.727C133.433 235.623 111.353 234.885 91.7929 242.814C72.1127 250.79 55.0289 264.971 38.6087 278.763Z" fill="#B8AD8A"/>
<path d="M452.4 354.812C451.946 354.002 451.42 353.24 450.819 352.536C448.2 349.475 444.548 347.65 441.783 344.737C438.857 341.656 437.053 337.484 434.002 334.547C430.778 331.438 426.489 330.005 422.343 328.664C397.185 320.496 371.853 312.289 345.724 309.233C325.407 306.856 304.899 307.623 284.471 307.072C242.732 305.941 201.292 299.282 159.607 296.69C117.926 294.099 75.248 295.747 35.8609 310.651C27.3235 313.88 18.9464 316.979 10.222 319.561C8.41384 320.098 6.34295 320.663 4.32104 321.43C11.6827 326.154 34.5961 326.144 67.913 343.87C80.512 350.577 95.5695 349.02 109.611 349.734C159.126 352.249 208.645 354.769 258.159 357.284C293.863 359.1 329.767 360.906 365.258 356.326C379.402 354.496 393.457 351.655 407.686 350.85C421.1 350.093 434.626 351.161 447.728 354.357C449.247 354.73 450.912 355.099 452.4 354.812Z" fill="#A3997C"/>
<path d="M453.62 418.007C453.491 418.007 453.362 418.007 453.237 418.007C426.578 417.997 400.503 409.493 373.884 407.903C343.783 406.111 313.882 413.182 283.789 415.185C250.201 417.422 216.621 413.36 183.335 408.899C154.044 404.976 124.713 400.611 95.1642 399.835C65.5304 399.059 38.2792 404.219 9.52718 411.074C6.97086 411.683 4.38782 412.195 1.86267 412.842C2.97605 414.5 4.70406 416.071 7.1535 417.504C12.0123 420.34 18.5367 420.138 23.6583 422.975C31.4831 427.305 37.923 434.932 45.0085 440.48C72.6026 462.077 108.017 468.137 142.082 470.322C174.887 472.425 207.785 471.534 240.639 470.643C275.105 469.704 309.571 468.769 344.041 467.835C355.665 467.519 367.538 467.155 378.44 462.795C400.596 453.937 415.966 429.744 439.026 424.163C444.112 422.931 450.396 421.724 453.62 418.007Z" fill="#A3997C"/>
<path d="M304.12 368.619C316.38 369.697 328.641 370.808 340.932 371.302C356.645 371.934 372.374 371.565 388.091 371.196C380.079 364.686 371.003 360.029 361.419 356.8C351.79 353.552 289.512 355.54 271.039 353.954C270.433 353.902 166.452 348.181 113.522 348.373C107.3 348.397 80.7526 344.684 78.5793 351.861C92.746 354.539 108.231 353.839 122.634 354.773C137.174 355.712 151.711 356.695 166.243 357.715C195.551 359.77 224.847 361.998 254.133 364.384C270.798 365.744 287.463 367.153 304.12 368.619Z" fill="#8E856E"/>
<path d="M59.2018 271.802C56.3115 275.405 53.6706 280.833 56.4051 284.575C59.0861 288.249 64.4259 286.936 68.541 285.437C109.852 270.413 154.597 272.655 198.192 273.901C205.438 274.107 212.831 274.265 219.765 271.999C226.624 269.762 232.627 265.297 238.955 261.675C251.443 254.522 265.503 250.565 279.647 250.23C271.751 243.024 260.698 241.63 250.352 241.319C235.971 240.888 221.542 241.951 207.135 243.015C184.725 244.668 162.359 246.325 140.292 242.354C124.077 239.441 113.419 239 98.197 245.482C83.1396 251.892 70.0863 258.24 59.2018 271.802Z" fill="#C6BA97"/>
<path d="M7.58539 402.566C16.5682 405.503 26.1299 402.02 35.1349 399.165C60.9253 390.977 88.0875 387.801 114.916 389.837C154.467 392.841 193.267 407.026 232.85 404.564C235.099 404.42 238.189 402.403 236.769 400.52C214.22 395.14 191.583 389.727 170.019 380.83C157.803 375.786 145.93 369.625 133.282 366.008C108.854 359.028 82.9481 362.127 59.135 370.31C49.9029 373.481 41.7351 377.439 33.545 382.886C29.1182 385.832 24.4286 388.314 20.0553 391.332C18.6391 392.314 8.08864 402.729 7.58539 402.566Z" fill="#C6BA97"/>
<path d="M305.001 404.966C340.527 391.049 379.883 399.457 416.732 408.583C425.946 410.868 435.721 413.168 444.7 409.977C440.669 402.48 431.125 401.756 423.105 401.033C401.327 399.074 380.355 390.671 358.551 389.09C336.381 387.48 314.354 392.975 292.723 398.436C288.359 399.538 284.947 402.638 288.933 406.346C292.87 410.011 300.998 406.533 305.001 404.966Z" fill="#C6BA97"/>
<path d="M329.429 322.053C334.101 322.728 340.674 322.206 341.164 317.166C334.582 315.93 327.839 316.639 321.176 317.147C275.198 320.63 229.158 314.086 183.206 310.263C137.254 306.439 90.1806 305.467 46.0238 319.667C42.7816 320.706 28.2943 323.212 21.4359 326.36C25.5643 327.38 30.245 328.621 35.4289 330.274C41.6728 328.549 47.5826 326.321 49.3239 325.746C79.8395 315.705 112.243 315.005 144.157 314.632C161.499 314.431 178.895 314.306 196.126 316.433C208.97 318.019 221.676 320.85 234.56 322.005C266.113 324.822 298.049 317.511 329.429 322.053Z" fill="#8E856E"/>
<path d="M166.839 416.948C154.124 414.624 141.392 412.306 128.534 411.185C116.612 410.145 104.632 410.15 92.6656 410.15C73.8271 410.155 54.7838 410.179 36.4486 414.854C31.9639 415.995 27.5371 417.393 23.0257 418.419C21.7119 418.72 17.1381 418.879 13.308 419.808C16.764 420.651 20.3892 421.255 23.4978 422.975C25.5375 424.105 27.4837 425.461 29.372 426.946C32.8547 424.637 36.0122 421.652 39.8155 420.024C42.8885 418.711 46.2286 418.347 49.5242 418.059C86.7424 414.782 124.134 418.807 161.379 421.782C171.72 422.606 182.177 423.348 192.42 421.609C183.896 420.057 175.368 418.5 166.839 416.948Z" fill="#8E856E"/>
<path d="M415.542 421.461C401.318 419.314 386.866 418.931 372.561 420.316C365.324 421.015 358.127 422.165 350.877 422.692C336.96 423.708 322.49 422.505 309.566 428.139C333.633 427.526 357.718 426.913 381.785 427.617C389.347 427.842 396.985 428.206 404.284 430.367C408.657 431.66 412.879 433.586 417.177 435.153C423.879 430.209 430.907 426.079 438.843 424.163C440.117 423.851 441.466 423.545 442.825 423.2C440.34 423.353 437.739 423.928 436.042 423.928C429.148 423.918 422.347 422.486 415.542 421.461Z" fill="#8E856E"/>
<path d="M49.0122 389.286C46.162 389.286 43.3696 388.841 40.7687 387.571C40.0695 387.231 39.3392 386.766 39.0809 385.99C38.5153 384.304 40.4436 382.962 42.0157 382.378C56.1334 377.156 71.1107 373.242 86.0211 371.9C89.3657 371.599 96.625 370.933 103.858 370.933C112.168 370.933 120.451 371.814 122.745 375.149C124.032 377.017 122.954 379.872 121.119 381.099C119.285 382.325 117 382.383 114.84 382.421C96.331 382.761 77.8488 384.62 59.6027 387.973C56.1289 388.611 52.5216 389.286 49.0122 389.286Z" fill="#D6CDB4"/>
<path d="M87.9849 273.949C86.9027 273.949 85.8249 273.834 84.7561 273.584C83.5403 273.297 82.2888 272.784 81.5451 271.707C80.592 270.332 80.7434 268.339 81.5139 266.834C82.2843 265.33 83.5626 264.214 84.8407 263.184C96.9276 253.459 111.98 248.078 127.074 248.078C127.14 248.078 127.207 248.078 127.274 248.078C135.277 248.102 143.213 249.592 151.198 250.249C155.745 250.627 160.56 250.991 165.325 250.991C168.585 250.991 171.823 250.819 174.927 250.364C180.538 249.545 185.401 247.863 191.178 247.863C191.445 247.863 191.712 247.868 191.984 247.873C193.707 247.92 195.475 248.05 197.03 248.85C198.579 249.65 199.88 251.274 199.889 253.128C199.898 254.474 199.239 255.734 198.397 256.735C196.424 259.088 193.516 260.252 190.661 261.037C185.936 262.345 181.117 262.834 176.263 262.834C167.837 262.834 159.295 261.368 150.909 260.156C145.119 259.318 139.174 258.633 133.3 258.633C125.76 258.633 118.34 259.763 111.535 263.165C107.131 265.368 103.154 268.454 98.807 270.787C95.4401 272.593 91.7036 273.949 87.9849 273.949Z" fill="#D6CDB4"/>
<path fill-rule="evenodd" clip-rule="evenodd" d="M305 376C305 298.68 367.146 236 443.806 236C476.135 236 505.883 247.148 529.477 265.839C511.51 255.749 490.816 249.999 468.791 249.999C399.797 249.999 343.866 306.412 343.866 376C343.866 445.588 399.797 502 468.791 502C490.816 502 511.51 496.251 529.477 486.161C505.883 504.852 476.135 516 443.806 516C367.146 516 305 453.32 305 376ZM585 376C585 437.856 535.284 488 473.955 488C448.091 488 424.293 479.082 405.418 464.129C419.792 472.201 436.347 476.8 453.967 476.8C509.162 476.8 553.907 431.67 553.907 376C553.907 320.33 509.162 275.2 453.967 275.2C436.347 275.2 419.792 279.799 405.418 287.871C424.293 272.918 448.091 264 473.955 264C535.283 264 585 314.144 585 376ZM485.425 439.636H503.181V312.364H487.666L445.086 365.046L402.334 312.364H386.819V439.636H404.575V342.095L445.086 392.518L485.425 342.095L485.425 439.636Z" fill="#005BAA"/>
</svg>
