<svg width="334" height="240" viewBox="0 0 334 240" fill="none" xmlns="http://www.w3.org/2000/svg">
<path d="M0 232.395V239.941H4.47303V238.708H1.35071V236.721H3.89554V235.507H1.35071V233.569H4.336V232.395L0 232.395Z" fill="white"/>
<path d="M12.2968 232.405H10.9558V234.186L11.1027 237.367L8.89061 232.405H7.54968V239.931H8.89061V238.013L8.77316 235.155L10.9852 239.931H12.2968L12.2968 232.405Z" fill="white"/>
<path d="M19.3277 237.602C19.3277 238.346 19.083 238.757 18.1042 238.757C17.1254 238.757 16.9395 238.346 16.9395 237.631V234.705C16.9395 233.99 17.1254 233.579 18.1042 233.579C19.1515 233.579 19.3277 233.99 19.3277 234.724H20.6784C20.6784 233.051 19.9247 232.385 18.1042 232.385C16.2837 232.385 15.5887 233.041 15.5887 234.636V237.7C15.5887 239.256 16.313 239.951 18.1042 239.951C19.8954 239.951 20.6784 239.256 20.6784 237.602H19.3277Z" fill="white"/>
<path d="M26.0748 240C27.8659 240 28.649 239.305 28.649 237.749V234.558C28.649 232.962 27.8953 232.307 26.0748 232.307C24.2542 232.307 23.5593 232.962 23.5593 234.558V237.749C23.5593 239.305 24.2836 240 26.0748 240ZM26.0748 238.806C25.096 238.806 24.91 238.395 24.91 237.68V234.626C24.91 233.941 25.096 233.501 26.0748 233.501C27.1221 233.501 27.2982 233.941 27.2982 234.626V237.68C27.2982 238.395 27.0535 238.806 26.0748 238.806Z" fill="white"/>
<path d="M36.7174 232.405H35.3765V234.186L35.5233 237.367L33.3112 232.405H31.9703V239.931H33.3112V238.013L33.1938 235.155L35.4058 239.931H36.7174L36.7174 232.405Z" fill="white"/>
<path d="M43.9734 232.424H39.5102V233.628H41.0762V239.931H42.4172V233.628H43.9734V232.424Z" fill="white"/>
<path d="M51.6993 239.931L50.0452 237.064C50.9554 236.77 51.3469 236.163 51.3469 235.047V234.656C51.3469 233.06 50.4954 232.395 48.6749 232.395H46.776V239.931H48.1267V237.279H48.6259L50.1234 239.931H51.6993ZM48.1169 236.036V233.638H48.6944C49.7417 233.638 49.9277 234.01 49.9277 234.724V234.979C49.9277 235.693 49.6536 236.036 48.6749 236.036H48.1169Z" fill="white"/>
<path d="M54.6291 232.395V239.941H59.1021V238.708H55.9798V236.721H58.5246V235.507H55.9798V233.569H58.9651V232.395L54.6291 232.395Z" fill="white"/>
<path d="M66.6844 232.395V239.941H71.1575V238.708H68.0352V236.721H70.58V235.507H68.0352V233.569H71.0204V232.395L66.6844 232.395Z" fill="white"/>
<path d="M83.4771 232.405H82.1361V234.186L82.283 237.367L80.0709 232.405H78.73V239.931H80.0709V238.013L79.9535 235.155L82.1655 239.931H83.4771L83.4771 232.405Z" fill="white"/>
<path d="M86.8767 232.395V239.941H91.3497V238.708H88.2274V236.721H90.7722V235.507H88.2274V233.569H91.2127V232.395L86.8767 232.395Z" fill="white"/>
<path d="M96.7853 236.868H98.0675V237.602C98.0675 238.346 97.7249 238.757 96.7461 238.757C95.7673 238.757 95.5813 238.346 95.5813 237.631V234.675C95.5813 233.99 95.7673 233.55 96.7461 233.55C97.7934 233.55 97.9696 233.902 97.9696 234.607H99.3203C99.3203 232.992 98.5666 232.355 96.7461 232.355C94.9256 232.355 94.2306 233.07 94.2306 234.607V237.631C94.2306 239.256 94.9549 239.97 96.7461 239.97C98.5373 239.97 99.3203 239.256 99.3203 237.602V235.644H96.7852L96.7853 236.868Z" fill="white"/>
<path d="M104.981 240C106.772 240 107.555 239.305 107.555 237.749V234.558C107.555 232.962 106.801 232.307 104.981 232.307C103.16 232.307 102.465 232.962 102.465 234.558V237.749C102.465 239.305 103.19 240 104.981 240ZM104.981 238.806C104.002 238.806 103.816 238.395 103.816 237.68V234.626C103.816 233.941 104.002 233.501 104.981 233.501C106.028 233.501 106.204 233.941 106.204 234.626V237.68C106.204 238.395 105.96 238.806 104.981 238.806Z" fill="white"/>
<path d="M114.518 237.602C114.518 238.346 114.273 238.757 113.294 238.757C112.315 238.757 112.129 238.346 112.129 237.631V234.705C112.129 233.99 112.315 233.579 113.294 233.579C114.341 233.579 114.518 233.99 114.518 234.724H115.868C115.868 233.051 115.115 232.385 113.294 232.385C111.474 232.385 110.779 233.041 110.779 234.636V237.7C110.779 239.256 111.503 239.951 113.294 239.951C115.085 239.951 115.868 239.256 115.868 237.602H114.518Z" fill="white"/>
<path d="M120.384 232.405H119.023V239.941H120.384V232.405Z" fill="white"/>
<path d="M123.793 232.395V239.941H128.266V238.708H125.144V236.721H127.689V235.507H125.144V233.569H128.129V232.395L123.793 232.395Z" fill="white"/>
<path d="M138.844 238.15L140.341 235.116L140.184 237.269V239.931H141.535V232.395H140.233L138.687 235.732L137.15 232.395H135.848V239.931H137.199V237.269L137.043 235.116L138.54 238.15H138.844Z" fill="white"/>
<path d="M147.764 232.405H146.423L144.338 239.931H145.728L146.119 238.6H148.047L148.429 239.931H149.819L147.764 232.405ZM146.452 237.279L147.078 234.489L147.705 237.279H146.452Z" fill="white"/>
<path d="M156.488 232.424H152.024V233.628H153.591V239.931H154.931V233.628H156.488L156.488 232.424Z" fill="white"/>
<path d="M159.29 232.395V239.941H163.763V238.708H160.641V236.721H163.186V235.507H160.641V233.569H163.626V232.395L159.29 232.395ZM162.589 230.584H161.238L160.68 231.915H161.845L162.589 230.584Z" fill="white"/>
<path d="M171.773 239.931L170.119 237.064C171.029 236.77 171.421 236.163 171.421 235.047V234.656C171.421 233.06 170.569 232.395 168.749 232.395H166.85V239.931H168.2V237.279H168.7L170.197 239.931H171.773ZM168.191 236.036V233.638H168.768C169.815 233.638 170.001 234.01 170.001 234.724V234.979C170.001 235.693 169.727 236.036 168.749 236.036H168.191Z" fill="white"/>
<path d="M176.063 232.405H174.703V239.941H176.063V232.405Z" fill="white"/>
<path d="M182.301 232.405H180.961L178.876 239.931H180.266L180.657 238.6H182.585L182.967 239.931H184.357L182.301 232.405ZM180.99 237.279L181.616 234.489L182.243 237.279H180.99Z" fill="white"/>
<path d="M191.104 236.046H187.081V237.171H191.104V236.046Z" fill="white"/>
<path d="M194.376 232.395V239.931H195.756V237.621H196.275C198.066 237.621 198.947 236.897 198.947 235.341V234.646C198.947 233.051 198.096 232.395 196.275 232.395L194.376 232.395ZM195.747 236.32V233.628H196.295C197.342 233.628 197.577 234 197.577 234.715V235.272C197.577 235.987 197.254 236.32 196.275 236.32H195.747Z" fill="white"/>
<path d="M207.006 239.931L205.352 237.064C206.262 236.77 206.654 236.163 206.654 235.047V234.656C206.654 233.06 205.802 232.395 203.981 232.395H202.083V239.931H203.433V237.279H203.933L205.43 239.931H207.006ZM203.424 236.036V233.638H204.001C205.048 233.638 205.234 234.01 205.234 234.724V234.979C205.234 235.693 204.96 236.036 203.982 236.036H203.424Z" fill="white"/>
<path d="M211.296 232.405H209.936V239.941H211.296V232.405Z" fill="white"/>
<path d="M217.701 238.15L219.198 235.116L219.042 237.269V239.931H220.392V232.395H219.091L217.544 235.732L216.007 232.395H214.706V239.931H216.056V237.269L215.9 235.116L217.397 238.15H217.701Z" fill="white"/>
<path d="M226.621 232.405H225.28L223.195 239.931H224.585L224.976 238.6H226.905L227.286 239.931H228.676L226.621 232.405ZM225.309 237.279L225.936 234.489L226.562 237.279H225.309Z" fill="white"/>
<path d="M239.312 237.602C239.312 238.346 239.068 238.757 238.089 238.757C237.11 238.757 236.924 238.346 236.924 237.631V234.705C236.924 233.99 237.11 233.579 238.089 233.579C239.136 233.579 239.312 233.99 239.312 234.724H240.663C240.663 233.051 239.909 232.385 238.089 232.385C236.268 232.385 235.573 233.041 235.573 234.636V237.7C235.573 239.256 236.298 239.951 238.089 239.951C239.88 239.951 240.663 239.256 240.663 237.602H239.312Z" fill="white"/>
<path d="M246.059 240C247.851 240 248.634 239.305 248.634 237.749V234.558C248.634 232.962 247.88 232.307 246.059 232.307C244.239 232.307 243.544 232.962 243.544 234.558V237.749C243.544 239.305 244.268 240 246.059 240ZM246.059 238.806C245.081 238.806 244.895 238.395 244.895 237.68V234.626C244.895 233.941 245.081 233.501 246.059 233.501C247.107 233.501 247.283 233.941 247.283 234.626V237.68C247.283 238.395 247.038 238.806 246.059 238.806Z" fill="white"/>
<path d="M254.96 238.15L256.457 235.116L256.301 237.269V239.931H257.651V232.395H256.35L254.803 235.732L253.266 232.395H251.965V239.931H253.315V237.269L253.159 235.116L254.656 238.15H254.96Z" fill="white"/>
<path d="M269.951 232.395H265.537V239.941H266.878V236.731H269.482V235.507H266.878V233.628H269.951V232.395Z" fill="white"/>
<path d="M275.367 232.405H274.026L271.942 239.931H273.331L273.723 238.6H275.651L276.033 239.931H277.423L275.367 232.405ZM274.056 237.279L274.682 234.489L275.309 237.279H274.056Z" fill="white"/>
<path d="M283.866 237.602C283.866 238.346 283.622 238.757 282.643 238.757C281.664 238.757 281.478 238.346 281.478 237.631V234.705C281.478 233.99 281.664 233.579 282.643 233.579C283.69 233.579 283.866 233.99 283.866 234.724H285.217C285.217 233.051 284.463 232.385 282.643 232.385C280.822 232.385 280.128 233.041 280.128 234.636V237.7C280.128 239.256 280.852 239.951 282.643 239.951C284.434 239.951 285.217 239.256 285.217 237.602H283.866Z" fill="white"/>
<path d="M289.733 232.405H288.372V239.941H289.733V232.405Z" fill="white"/>
<path d="M297.41 238.698H294.503V232.395H293.142V239.931H297.41V238.698Z" fill="white"/>
<path d="M301.729 232.405H300.369V239.941H301.729V232.405Z" fill="white"/>
<path d="M305.148 232.395V239.931H307.625C309.416 239.931 310.199 239.276 310.199 237.719V234.646C310.199 233.051 309.445 232.395 307.625 232.395L305.148 232.395ZM306.489 238.708V233.628H307.644C308.692 233.628 308.848 234 308.848 234.715V237.651C308.848 238.365 308.604 238.708 307.625 238.708H306.489Z" fill="white"/>
<path d="M315.977 232.405H314.636L312.551 239.931H313.941L314.333 238.6H316.261L316.643 239.931H318.032L315.977 232.405ZM314.665 237.279L315.292 234.489L315.918 237.279H314.665Z" fill="white"/>
<path d="M320.855 232.395V239.931H323.331C325.122 239.931 325.905 239.276 325.905 237.719V234.646C325.905 233.051 325.151 232.395 323.331 232.395L320.855 232.395ZM322.196 238.708V233.628H323.351C324.398 233.628 324.554 234 324.554 234.715V237.651C324.554 238.365 324.31 238.708 323.331 238.708H322.196Z" fill="white"/>
<path d="M329.148 232.395V239.941H333.621V238.708H330.499V236.721H333.044V235.507H330.499V233.569H333.484V232.395L329.148 232.395Z" fill="white"/>
<path d="M30.7213 194.486L48.1044 172.228V219.964H50.6167V169.012L50.6502 168.98H47.4521L25.3247 197.314L3.20391 168.989L3.19663 168.98H0.0567932L7.62939e-06 168.981L0.031311 169.012V219.964H2.54361V172.227L19.9274 194.486L21.494 196.488L25.3058 201.37L25.3247 201.394L29.1547 196.488L30.7213 194.486Z" fill="white"/>
<path d="M61.9384 210.105H91.8335L95.737 219.949L95.7435 219.964H98.4458L78.2345 168.996L78.228 168.981H75.5446L55.3399 219.931L55.3275 219.964H58.0284L61.9384 210.105ZM62.9343 207.593L76.887 172.412L90.8376 207.593H62.9343Z" fill="white"/>
<path d="M105.108 219.964H107.62V171.493H127.842V168.981H84.884V171.493H105.108V219.964Z" fill="white"/>
<path d="M155.433 195.728V193.216H140.661V195.728H155.433ZM135.007 171.493H175.454V168.981H132.495V219.964H175.454V217.451H135.007V171.493ZM211.358 204.438C214.862 203.185 217.865 200.917 220.046 197.879C222.28 194.767 223.46 191.09 223.46 187.245C223.46 182.367 221.56 177.78 218.11 174.33C214.66 170.88 210.073 168.98 205.194 168.98H180.472V202.994H140.025V205.506H180.471V219.965H182.983V205.506H205.194C206.388 205.506 207.579 205.39 208.738 205.16L220.293 219.955L220.3 219.965H223.485L211.358 204.438ZM207.012 202.888C206.432 202.958 205.82 202.994 205.194 202.994H182.984V171.492H205.194C213.881 171.492 220.947 178.559 220.947 187.245C220.947 194.157 216.323 200.364 209.702 202.34C208.821 202.601 207.916 202.786 207.012 202.888Z" fill="white"/>
<path d="M230.665 219.964V168.981H228.153V219.964H230.665Z" fill="white"/>
<path d="M237.05 206.845C238.132 209.403 239.68 211.701 241.652 213.673C243.625 215.646 245.921 217.195 248.479 218.276C251.126 219.396 253.939 219.964 256.838 219.964C259.737 219.964 262.551 219.396 265.199 218.276C267.756 217.194 270.054 215.646 272.026 213.673C273.999 211.7 275.548 209.403 276.629 206.845C277.75 204.197 278.317 201.383 278.317 198.484V168.981H275.805V198.485C275.805 208.943 267.297 217.452 256.838 217.452C246.381 217.452 237.875 208.944 237.875 198.485L237.873 168.981H235.36L235.362 198.485C235.362 201.384 235.93 204.197 237.05 206.845Z" fill="white"/>
<path d="M313.692 194.486L331.075 172.228V219.964H333.588V169.012L333.621 168.98H330.423L308.296 197.314L286.175 168.989L286.168 168.98H283.028L282.971 168.981L283.002 169.012V219.964H285.515V172.227L302.898 194.486L304.465 196.488L308.277 201.37L308.296 201.394L312.126 196.488L313.692 194.486Z" fill="white"/>
<path fill-rule="evenodd" clip-rule="evenodd" d="M96.063 70.1443C96.063 31.4047 127.468 0 166.207 0C182.545 0 197.577 5.58546 209.5 14.9502C200.42 9.89472 189.963 7.01414 178.833 7.01414C143.968 7.01414 115.703 35.2783 115.703 70.1443C115.703 105.01 143.968 133.274 178.833 133.274C189.963 133.274 200.42 130.394 209.5 125.338C197.577 134.703 182.545 140.289 166.207 140.289C127.468 140.289 96.063 108.884 96.063 70.1443ZM237.558 70.1443C237.558 101.136 212.434 126.26 181.443 126.26C168.373 126.26 156.347 121.792 146.808 114.299C154.072 118.344 162.438 120.648 171.342 120.648C199.234 120.648 221.846 98.0369 221.846 70.1443C221.846 42.2518 199.234 19.6406 171.342 19.6406C162.438 19.6406 154.072 21.9448 146.808 25.989C156.347 18.4972 168.373 14.029 181.443 14.029C212.434 14.029 237.558 39.1527 237.558 70.1443ZM187.239 102.028H196.212V38.2605H188.371L166.854 64.6561L145.25 38.2605H137.41V102.028H146.382V53.157L166.854 78.4202L187.239 53.157L187.239 102.028Z" fill="white"/>
</svg>
