<svg width="334" height="69" viewBox="0 0 334 69" fill="none" xmlns="http://www.w3.org/2000/svg">
<path d="M0 60.9761V68.2323H4.47303V67.0464H1.35071V65.1359H3.89554V63.9689H1.35071V62.1055H4.336V60.9761L0 60.9761Z" fill="#005BAA"/>
<path d="M12.2968 60.9856H10.9558V62.6985L11.1027 65.7572L8.89061 60.9856H7.54968V68.223H8.89061V66.3783L8.77316 63.6302L10.9852 68.223H12.2968L12.2968 60.9856Z" fill="#005BAA"/>
<path d="M19.3277 65.9831C19.3277 66.6983 19.083 67.0936 18.1042 67.0936C17.1254 67.0936 16.9395 66.6983 16.9395 66.0113V63.1973C16.9395 62.5103 17.1254 62.115 18.1042 62.115C19.1515 62.115 19.3277 62.5103 19.3277 63.2161H20.6784C20.6784 61.6068 19.9248 60.9668 18.1042 60.9668C16.2837 60.9668 15.5887 61.5973 15.5887 63.1314V66.0772C15.5887 67.5736 16.313 68.2418 18.1042 68.2418C19.8954 68.2418 20.6784 67.5736 20.6784 65.9831H19.3277Z" fill="#005BAA"/>
<path d="M26.0747 68.2889C27.8659 68.2889 28.6489 67.6207 28.6489 66.1243V63.0562C28.6489 61.5222 27.8953 60.8916 26.0747 60.8916C24.2542 60.8916 23.5593 61.5222 23.5593 63.0562V66.1243C23.5593 67.6207 24.2836 68.2889 26.0747 68.2889ZM26.0747 67.1408C25.096 67.1408 24.91 66.7455 24.91 66.0585V63.1221C24.91 62.4633 25.096 62.0398 26.0747 62.0398C27.122 62.0398 27.2982 62.4633 27.2982 63.1221V66.0585C27.2982 66.7455 27.0535 67.1408 26.0747 67.1408Z" fill="#005BAA"/>
<path d="M36.7174 60.9856H35.3764V62.6985L35.5233 65.7572L33.3112 60.9856H31.9703V68.223H33.3112V66.3783L33.1938 63.6302L35.4058 68.223H36.7174L36.7174 60.9856Z" fill="#005BAA"/>
<path d="M43.9734 61.0044H39.5102V62.162H41.0762V68.2229H42.4172V62.162H43.9734V61.0044Z" fill="#005BAA"/>
<path d="M51.6993 68.2231L50.0452 65.4655C50.9554 65.1832 51.3469 64.5997 51.3469 63.5268V63.1503C51.3469 61.6163 50.4954 60.9763 48.6749 60.9763H46.776V68.2231H48.1267V65.6726H48.6259L50.1234 68.2231H51.6993ZM48.1169 64.4773V62.1716H48.6944C49.7417 62.1716 49.9277 62.5292 49.9277 63.2162V63.4609C49.9277 64.1479 49.6536 64.4773 48.6749 64.4773H48.1169Z" fill="#005BAA"/>
<path d="M54.6291 60.9761V68.2323H59.1021V67.0464H55.9798V65.1359H58.5246V63.9689H55.9798V62.1055H58.9651V60.9761L54.6291 60.9761Z" fill="#005BAA"/>
<path d="M66.6844 60.9761V68.2323H71.1575V67.0464H68.0352V65.1359H70.58V63.9689H68.0352V62.1055H71.0204V60.9761L66.6844 60.9761Z" fill="#005BAA"/>
<path d="M83.4771 60.9856H82.1361V62.6985L82.283 65.7572L80.0709 60.9856H78.73V68.223H80.0709V66.3783L79.9535 63.6302L82.1655 68.223H83.4771L83.4771 60.9856Z" fill="#005BAA"/>
<path d="M86.8767 60.9761V68.2323H91.3497V67.0464H88.2274V65.1359H90.7722V63.9689H88.2274V62.1055H91.2127V60.9761L86.8767 60.9761Z" fill="#005BAA"/>
<path d="M96.7852 65.2771H98.0674V65.983C98.0674 66.6982 97.7249 67.0935 96.7461 67.0935C95.7673 67.0935 95.5813 66.6982 95.5813 66.0112V63.169C95.5813 62.5102 95.7673 62.0867 96.7461 62.0867C97.7934 62.0867 97.9695 62.4255 97.9695 63.1031H99.3203C99.3203 61.5502 98.5666 60.9385 96.7461 60.9385C94.9255 60.9385 94.2306 61.6255 94.2306 63.1031V66.0112C94.2306 67.5735 94.9549 68.2605 96.7461 68.2605C98.5372 68.2605 99.3203 67.5735 99.3203 65.983V64.1007H96.7852L96.7852 65.2771Z" fill="#005BAA"/>
<path d="M104.981 68.2889C106.772 68.2889 107.555 67.6207 107.555 66.1243V63.0562C107.555 61.5222 106.801 60.8916 104.981 60.8916C103.16 60.8916 102.465 61.5222 102.465 63.0562V66.1243C102.465 67.6207 103.19 68.2889 104.981 68.2889ZM104.981 67.1408C104.002 67.1408 103.816 66.7455 103.816 66.0585V63.1221C103.816 62.4633 104.002 62.0398 104.981 62.0398C106.028 62.0398 106.204 62.4633 106.204 63.1221V66.0585C106.204 66.7455 105.96 67.1408 104.981 67.1408Z" fill="#005BAA"/>
<path d="M114.518 65.9831C114.518 66.6983 114.273 67.0936 113.294 67.0936C112.315 67.0936 112.129 66.6983 112.129 66.0113V63.1973C112.129 62.5103 112.315 62.115 113.294 62.115C114.341 62.115 114.518 62.5103 114.518 63.2161H115.868C115.868 61.6068 115.115 60.9668 113.294 60.9668C111.473 60.9668 110.779 61.5973 110.779 63.1314V66.0772C110.779 67.5736 111.503 68.2418 113.294 68.2418C115.085 68.2418 115.868 67.5736 115.868 65.9831H114.518Z" fill="#005BAA"/>
<path d="M120.384 60.9856H119.023V68.2323H120.384V60.9856Z" fill="#005BAA"/>
<path d="M123.793 60.9761V68.2323H128.266V67.0464H125.144V65.1359H127.689V63.9689H125.144V62.1055H128.129V60.9761L123.793 60.9761Z" fill="#005BAA"/>
<path d="M138.844 66.5102L140.341 63.5927L140.184 65.6632V68.2231H141.535V60.9763H140.233L138.687 64.1856L137.15 60.9763H135.848V68.2231H137.199V65.6632L137.043 63.5927L138.54 66.5102H138.844Z" fill="#005BAA"/>
<path d="M147.764 60.9856H146.423L144.338 68.2229H145.728L146.119 66.943H148.047L148.429 68.2229H149.819L147.764 60.9856ZM146.452 65.6725L147.078 62.9902L147.705 65.6725H146.452Z" fill="#005BAA"/>
<path d="M156.488 61.0044H152.024V62.162H153.591V68.2229H154.931V62.162H156.488L156.488 61.0044Z" fill="#005BAA"/>
<path d="M159.29 60.9762V68.2324H163.763V67.0466H160.641V65.136H163.186V63.969H160.641V62.1056H163.626V60.9762L159.29 60.9762ZM162.589 59.2351H161.238L160.68 60.5151H161.845L162.589 59.2351Z" fill="#005BAA"/>
<path d="M171.773 68.2231L170.119 65.4655C171.029 65.1832 171.421 64.5997 171.421 63.5268V63.1503C171.421 61.6163 170.569 60.9763 168.749 60.9763H166.85V68.2231H168.2V65.6726H168.7L170.197 68.2231H171.773ZM168.191 64.4773V62.1716H168.768C169.815 62.1716 170.001 62.5292 170.001 63.2162V63.4609C170.001 64.1479 169.727 64.4773 168.749 64.4773H168.191Z" fill="#005BAA"/>
<path d="M176.063 60.9856H174.703V68.2323H176.063V60.9856Z" fill="#005BAA"/>
<path d="M182.301 60.9856H180.961L178.876 68.2229H180.266L180.657 66.943H182.585L182.967 68.2229H184.357L182.301 60.9856ZM180.99 65.6725L181.616 62.9902L182.243 65.6725H180.99Z" fill="#005BAA"/>
<path d="M191.104 64.4866H187.081V65.5689H191.104V64.4866Z" fill="#005BAA"/>
<path d="M194.376 60.9761V68.2229H195.756V66.0018H196.275C198.066 66.0018 198.947 65.3053 198.947 63.8089V63.1407C198.947 61.6067 198.096 60.9761 196.275 60.9761L194.376 60.9761ZM195.747 64.7501V62.1619H196.295C197.342 62.1619 197.577 62.5196 197.577 63.2066V63.7431C197.577 64.4301 197.254 64.7501 196.275 64.7501H195.747Z" fill="#005BAA"/>
<path d="M207.006 68.2231L205.352 65.4655C206.262 65.1832 206.654 64.5997 206.654 63.5268V63.1503C206.654 61.6163 205.802 60.9763 203.981 60.9763H202.083V68.2231H203.433V65.6726H203.933L205.43 68.2231H207.006ZM203.424 64.4773V62.1716H204.001C205.048 62.1716 205.234 62.5292 205.234 63.2162V63.4609C205.234 64.1479 204.96 64.4773 203.982 64.4773H203.424Z" fill="#005BAA"/>
<path d="M211.296 60.9856H209.936V68.2323H211.296V60.9856Z" fill="#005BAA"/>
<path d="M217.701 66.5102L219.198 63.5927L219.042 65.6632V68.2231H220.392V60.9763H219.091L217.544 64.1856L216.007 60.9763H214.706V68.2231H216.056V65.6632L215.9 63.5927L217.397 66.5102H217.701Z" fill="#005BAA"/>
<path d="M226.621 60.9856H225.28L223.195 68.2229H224.585L224.976 66.943H226.905L227.286 68.2229H228.676L226.621 60.9856ZM225.309 65.6725L225.936 62.9902L226.562 65.6725H225.309Z" fill="#005BAA"/>
<path d="M239.312 65.9831C239.312 66.6983 239.068 67.0936 238.089 67.0936C237.11 67.0936 236.924 66.6983 236.924 66.0113V63.1973C236.924 62.5103 237.11 62.115 238.089 62.115C239.136 62.115 239.312 62.5103 239.312 63.2161H240.663C240.663 61.6068 239.909 60.9668 238.089 60.9668C236.268 60.9668 235.573 61.5973 235.573 63.1314V66.0772C235.573 67.5736 236.298 68.2418 238.089 68.2418C239.88 68.2418 240.663 67.5736 240.663 65.9831H239.312Z" fill="#005BAA"/>
<path d="M246.059 68.2889C247.851 68.2889 248.634 67.6207 248.634 66.1243V63.0562C248.634 61.5222 247.88 60.8916 246.059 60.8916C244.239 60.8916 243.544 61.5222 243.544 63.0562V66.1243C243.544 67.6207 244.268 68.2889 246.059 68.2889ZM246.059 67.1408C245.081 67.1408 244.895 66.7455 244.895 66.0585V63.1221C244.895 62.4633 245.081 62.0398 246.059 62.0398C247.107 62.0398 247.283 62.4633 247.283 63.1221V66.0585C247.283 66.7455 247.038 67.1408 246.059 67.1408Z" fill="#005BAA"/>
<path d="M254.96 66.5102L256.457 63.5927L256.301 65.6632V68.2231H257.651V60.9763H256.35L254.803 64.1856L253.266 60.9763H251.965V68.2231H253.315V65.6632L253.159 63.5927L254.656 66.5102H254.96Z" fill="#005BAA"/>
<path d="M269.951 60.9763H265.537V68.2325H266.878V65.1455H269.482V63.9691H266.878V62.1621H269.951V60.9763Z" fill="#005BAA"/>
<path d="M275.367 60.9856H274.026L271.942 68.2229H273.332L273.723 66.943H275.651L276.033 68.2229H277.423L275.367 60.9856ZM274.056 65.6725L274.682 62.9902L275.309 65.6725H274.056Z" fill="#005BAA"/>
<path d="M283.866 65.9831C283.866 66.6983 283.622 67.0936 282.643 67.0936C281.664 67.0936 281.478 66.6983 281.478 66.0113V63.1973C281.478 62.5103 281.664 62.115 282.643 62.115C283.69 62.115 283.866 62.5103 283.866 63.2161H285.217C285.217 61.6068 284.463 60.9668 282.643 60.9668C280.822 60.9668 280.128 61.5973 280.128 63.1314V66.0772C280.128 67.5736 280.852 68.2418 282.643 68.2418C284.434 68.2418 285.217 67.5736 285.217 65.9831H283.866Z" fill="#005BAA"/>
<path d="M289.733 60.9856H288.372V68.2323H289.733V60.9856Z" fill="#005BAA"/>
<path d="M297.41 67.0372H294.503V60.9763H293.142V68.2231H297.41V67.0372Z" fill="#005BAA"/>
<path d="M301.729 60.9856H300.369V68.2323H301.729V60.9856Z" fill="#005BAA"/>
<path d="M305.148 60.9761V68.2229H307.625C309.416 68.2229 310.199 67.5923 310.199 66.0959V63.1407C310.199 61.6067 309.445 60.9761 307.625 60.9761L305.148 60.9761ZM306.489 67.0464V62.1619H307.644C308.692 62.1619 308.848 62.5196 308.848 63.2066V66.03C308.848 66.717 308.604 67.0464 307.625 67.0464H306.489Z" fill="#005BAA"/>
<path d="M315.977 60.9856H314.636L312.551 68.2229H313.941L314.333 66.943H316.261L316.643 68.2229H318.032L315.977 60.9856ZM314.665 65.6725L315.292 62.9902L315.918 65.6725H314.665Z" fill="#005BAA"/>
<path d="M320.855 60.9761V68.2229H323.331C325.122 68.2229 325.905 67.5923 325.905 66.0959V63.1407C325.905 61.6067 325.151 60.9761 323.331 60.9761L320.855 60.9761ZM322.196 67.0464V62.1619H323.351C324.398 62.1619 324.554 62.5196 324.554 63.2066V66.03C324.554 66.717 324.31 67.0464 323.331 67.0464H322.196Z" fill="#005BAA"/>
<path d="M329.148 60.9761V68.2323H333.621V67.0464H330.499V65.1359H333.044V63.9689H330.499V62.1055H333.484V60.9761L329.148 60.9761Z" fill="#005BAA"/>
<path d="M30.7213 24.5257L48.1044 3.12336V49.0234H50.6167V0.0314859L50.6501 0H47.4521L25.3247 27.2445L3.2039 0.00909659L3.19662 0H0.0567856L0 0.0014085L0.0313034 0.030811V49.0234H2.5436V3.12268L19.9274 24.5257L21.494 26.45L25.3058 31.1441L25.3247 31.1672L29.1547 26.45L30.7213 24.5257Z" fill="#005BAA"/>
<path d="M61.9384 39.5434H91.8335L95.737 49.0087L95.7435 49.0234H98.4458L78.2345 0.0154618L78.228 0.00146484H75.5446L55.3399 48.9919L55.3275 49.0234H58.0284L61.9384 39.5434ZM62.9343 37.1277L76.887 3.29986L90.8376 37.1277H62.9343Z" fill="#005BAA"/>
<path d="M105.108 49.0234H107.62V2.41714H127.842V0.00146484H84.884V2.41714H105.108V49.0234Z" fill="#005BAA"/>
<path d="M155.433 25.7199V23.3042H140.661V25.7199H155.433ZM135.007 2.41708H175.454V0.0014085H132.495V49.0234H175.454V46.607H135.007V2.41708ZM211.358 34.0946C214.862 32.8892 217.865 30.7087 220.046 27.7876C222.28 24.7952 223.46 21.2595 223.46 17.5628C223.46 12.8722 221.56 8.46221 218.11 5.14424C214.66 1.82697 210.073 0 205.194 0H180.472V32.7058H140.025V35.1215H180.471V49.0241H182.983V35.1215H205.194C206.388 35.1215 207.579 35.0095 208.738 34.7883L220.293 49.015L220.3 49.0241H223.485L211.358 34.0946ZM207.012 32.6043C206.432 32.6715 205.82 32.7058 205.194 32.7058H182.984V2.41567H205.194C213.881 2.41567 220.947 9.21121 220.947 17.5628C220.947 24.2093 216.323 30.1774 209.702 32.0772C208.821 32.3285 207.916 32.5056 207.012 32.6043Z" fill="#005BAA"/>
<path d="M230.665 49.0234V0.00146484H228.153V49.0234H230.665Z" fill="#005BAA"/>
<path d="M237.05 36.4088C238.132 38.8686 239.68 41.0778 241.652 42.9741C243.625 44.871 245.921 46.3606 248.479 47.4001C251.126 48.4774 253.939 49.0234 256.838 49.0234C259.737 49.0234 262.551 48.4774 265.199 47.4001C267.756 46.3599 270.054 44.871 272.026 42.9741C273.999 41.0771 275.548 38.8686 276.629 36.4088C277.75 33.8629 278.317 31.1575 278.317 28.3694V0.00146484H275.805V28.3701C275.805 38.4262 267.297 46.6077 256.838 46.6077C246.381 46.6077 237.875 38.4269 237.875 28.3701L237.873 0.00146484H235.36L235.362 28.3701C235.362 31.1582 235.93 33.8629 237.05 36.4088Z" fill="#005BAA"/>
<path d="M313.692 24.5257L331.075 3.12336V49.0234H333.588V0.0314859L333.621 0H330.423L308.296 27.2445L286.175 0.00909659L286.168 0H283.028L282.971 0.0014085L283.002 0.030811V49.0234H285.515V3.12268L302.898 24.5257L304.465 26.45L308.277 31.1441L308.296 31.1672L312.126 26.45L313.692 24.5257Z" fill="#005BAA"/>
</svg>
